<svg width="57" height="50" viewBox="0 0 57 50" fill="none" xmlns="http://www.w3.org/2000/svg">
<path d="M31.5386 21.4614H25.8036V25.6049H27.094L25.8036 26.8952V27.1229H25.5759L23.5894 29.1094C23.9566 29.8715 23.9646 30.6614 23.9646 30.6614V32.7934L24.0945 32.9234L32.8612 25.1277C33.3187 24.7476 33.6104 24.1745 33.6104 23.5332C33.6103 22.3889 32.6829 21.4614 31.5386 21.4614Z" fill="#FFD5B3"/>
<path d="M20.0644 24.2623L22.9251 27.1229H25.8037V21.3555H22.9711L20.0644 24.2623Z" fill="#046699"/>
<path d="M9.66707 49.1796C14.5529 49.1796 18.5136 45.2189 18.5136 40.3331C18.5136 35.4473 14.5529 31.4865 9.66707 31.4865C4.78128 31.4865 0.820557 35.4473 0.820557 40.3331C0.820557 45.2189 4.78128 49.1796 9.66707 49.1796Z" fill="#9EA7AF"/>
<path d="M9.66663 46.8205C6.08963 46.8205 3.17944 43.9103 3.17944 40.3333C3.17944 36.7563 6.08963 33.8461 9.66663 33.8461C13.2438 33.8461 16.1539 36.7563 16.1539 40.3333C16.1539 43.9103 13.2439 46.8205 9.66663 46.8205Z" fill="white"/>
<path d="M45.0509 49.1796C49.9367 49.1796 53.8974 45.2189 53.8974 40.3331C53.8974 35.4473 49.9367 31.4865 45.0509 31.4865C40.1651 31.4865 36.2044 35.4473 36.2044 40.3331C36.2044 45.2189 40.1651 49.1796 45.0509 49.1796Z" fill="#9EA7AF"/>
<path d="M45.0514 46.8205C41.4744 46.8205 38.5642 43.9103 38.5642 40.3333C38.5642 36.7563 41.4744 33.8461 45.0514 33.8461C48.6284 33.8461 51.5386 36.7563 51.5386 40.3333C51.5386 43.9103 48.6284 46.8205 45.0514 46.8205Z" fill="white"/>
<path d="M27.0052 38.2101C25.6026 38.2101 24.4391 39.2305 24.2142 40.5691H26.2223C26.5231 40.5691 26.7693 40.8153 26.7693 41.1162V42.4991C26.7693 42.7999 26.5231 43.0461 26.2223 43.0461H25.0073C25.2697 43.3083 25.5813 43.5161 25.9241 43.6578C26.2669 43.7994 26.6343 43.8721 27.0053 43.8717C28.5687 43.8717 29.8361 42.6043 29.8361 41.0409C29.836 39.4776 28.5686 38.2101 27.0052 38.2101Z" fill="#9EA7AF"/>
<path d="M20.8291 40.5692H23.9647L23.9646 30.6614C23.9646 30.6614 23.9496 29.1007 22.9422 28.2503L19.8656 31.3269L20.6366 40.606C20.698 40.5821 20.7632 40.5696 20.8291 40.5692Z" fill="#FFB98A"/>
<path d="M25.1747 8.2206C25.1733 9.13875 25.4689 10.0327 26.0172 10.7692C26.1713 10.864 26.314 10.9762 26.4424 11.1036L27.1868 11.848C27.8656 12.2734 28.6506 12.4985 29.4516 12.4975C31.8136 12.4975 33.7283 10.5826 33.7283 8.22071V5.30243H25.1747V8.2206Z" fill="#FFD5B3"/>
<path d="M25.1747 8.2206C25.1733 9.13875 25.4689 10.0327 26.0172 10.7692C26.1713 10.864 26.314 10.9762 26.4424 11.1036L27.1868 11.848C27.8656 12.2734 28.6506 12.4985 29.4516 12.4975C31.8136 12.4975 33.7283 10.5826 33.7283 8.22071V5.30243H25.1747V8.2206Z" fill="#FFD5B3"/>
<path d="M25.1747 8.2206C25.1733 9.13875 25.4689 10.0327 26.0172 10.7692C26.1713 10.864 26.314 10.9762 26.4424 11.1036L27.1868 11.848C27.3179 11.9301 27.4549 12.0031 27.5949 12.0709V5.30243H25.1747V8.2206Z" fill="#775436"/>
<path d="M26.7693 42.4991C26.7693 42.7999 26.5231 43.0461 26.2223 43.0461H20.8291C20.5283 43.0461 20.2821 42.7999 20.2821 42.4991V41.1162C20.2821 40.8153 20.5283 40.5692 20.8291 40.5692H26.2223C26.5231 40.5692 26.7693 40.8153 26.7693 41.1162V42.4991Z" fill="#F7931E"/>
<path d="M22.5375 42.4991V41.1162C22.5375 40.8153 22.7837 40.5692 23.0845 40.5692H20.8291C20.5283 40.5692 20.2821 40.8153 20.2821 41.1162V42.4991C20.2821 42.7999 20.5283 43.0461 20.8291 43.0461H23.0845C22.7837 43.0461 22.5375 42.7999 22.5375 42.4991Z" fill="black"/>
<path d="M26.2682 17.8139C26.1739 17.8139 26.081 17.7912 25.9973 17.7478C24.0726 16.7512 22.8771 14.7845 22.8771 12.6152C22.8771 12.1787 22.9264 11.7421 23.0239 11.3175C23.0484 11.2129 23.1012 11.117 23.1764 11.0403C23.1532 11.0618 23.1288 11.081 23.1063 11.1037L15.0059 19.2039L20.0644 24.2624L26.6851 17.6417C26.5744 17.7521 26.4245 17.814 26.2682 17.8139Z" fill="#FCDB67"/>
<path d="M23.4973 27.6952L15.0166 19.2146C15.013 19.211 15.0097 19.2072 15.006 19.2036L12.5957 21.614C11.6782 22.5315 11.6782 24.0326 12.5957 24.9501L19.419 31.7734L23.4973 27.6952Z" fill="#046699"/>
<path d="M22.8771 12.6152C22.8771 12.1787 22.9264 11.7421 23.0239 11.3175C23.0484 11.2129 23.1012 11.117 23.1764 11.0403C23.1532 11.0618 23.1288 11.081 23.1063 11.1037L15.0059 19.2039L16.1072 20.3052L22.9407 13.4718C22.8985 13.1882 22.8772 12.9019 22.8771 12.6152Z" fill="black"/>
<path d="M14.8086 24.9501C13.8912 24.0326 13.8912 22.5315 14.8086 21.614L16.1123 20.3103L15.0166 19.2146C15.013 19.211 15.0097 19.2072 15.006 19.2036L12.5957 21.614C11.6782 22.5315 11.6782 24.0326 12.5957 24.9501L19.419 31.7734L20.5254 30.667L14.8086 24.9501Z" fill="black"/>
<path d="M41.7599 20.6358H38.4005L33.0822 17.7434L26.4425 11.1036C25.9986 10.6598 25.4062 10.4154 24.7744 10.4154C24.1935 10.4154 23.637 10.6261 23.2067 11.0087C23.1152 11.0901 23.0513 11.198 23.0239 11.3175C22.9263 11.7431 22.8771 12.1784 22.8771 12.6151C22.8771 14.7844 24.0727 16.7511 25.9973 17.7478C26.1085 17.8053 26.2351 17.826 26.3588 17.8068C26.4825 17.7876 26.5969 17.7296 26.6855 17.6411L27.2843 17.0422L31.5485 20.4719C31.5863 20.5023 31.6275 20.5279 31.6715 20.5481L38.5953 23.7353C38.6642 23.7669 38.7364 23.7834 38.8084 23.7875C38.8462 23.8208 38.8869 23.8509 38.929 23.8788C39.0171 23.1156 39.6646 22.5227 40.4513 22.5227C41.2901 22.5227 41.9706 23.1965 41.9835 24.0322C42.4664 23.9295 42.8288 23.5009 42.8288 22.9872V21.7045C42.8288 21.1143 42.3504 20.6358 41.7599 20.6358Z" fill="#FFB98A"/>
<path d="M29.4516 0.820312C27.0896 0.820312 25.1747 1.99686 25.1747 4.35881V5.30243H33.7283V4.47675C33.7283 2.1148 31.8136 0.820312 29.4516 0.820312Z" fill="#EF5050"/>
<path d="M27.4608 4.35882C27.4608 2.40123 28.7766 1.25871 30.5717 0.924697C30.2025 0.854503 29.8274 0.819555 29.4516 0.820325C27.0896 0.820325 25.1747 1.99687 25.1747 4.35882V5.30244H27.4608V4.35882Z" fill="black"/>
<path d="M40.4515 25.5896C41.2987 25.5896 41.9854 24.9028 41.9854 24.0557C41.9854 23.2086 41.2987 22.5219 40.4515 22.5219C39.6044 22.5219 38.9177 23.2086 38.9177 24.0557C38.9177 24.9028 39.6044 25.5896 40.4515 25.5896Z" fill="#046699"/>
<path d="M31.4873 9.07168C31.7049 9.07168 31.9136 8.98523 32.0675 8.83135C32.2214 8.67746 32.3078 8.46876 32.3078 8.25114V7.48814C32.3078 7.03499 31.9406 6.6676 31.4873 6.6676C31.034 6.6676 30.6667 7.03499 30.6667 7.48814V8.25114C30.6667 8.46876 30.7532 8.67746 30.9071 8.83135C31.061 8.98523 31.2697 9.07168 31.4873 9.07168Z" fill="black"/>
<path d="M55.195 48.3589H50.4339C53.016 46.6216 54.718 43.6725 54.718 40.3333C54.718 35.003 50.3815 30.6665 45.0514 30.6665C44.0624 30.6658 43.0793 30.8174 42.1365 31.116L41.4116 29.3589H44.8154C46.5361 29.3589 47.9358 27.9591 47.9358 26.2384C47.9358 24.5177 46.536 23.1179 44.8154 23.1179H43.6426C43.6455 23.0746 43.6492 23.0315 43.6492 22.9875V21.7048C43.6492 20.663 42.8017 19.8154 41.7598 19.8154H38.6091L33.5785 17.0794L32.7456 16.2464C32.6694 16.1702 32.5789 16.1097 32.4794 16.0685C32.3799 16.0272 32.2732 16.006 32.1654 16.006C32.0576 16.006 31.9509 16.0272 31.8514 16.0685C31.7518 16.1097 31.6614 16.1702 31.5852 16.2464C31.509 16.3225 31.4485 16.413 31.4073 16.5125C31.366 16.6121 31.3448 16.7188 31.3448 16.8265C31.3448 16.9343 31.366 17.041 31.4072 17.1405C31.4485 17.2401 31.5089 17.3305 31.5851 17.4067L32.502 18.3236C32.5577 18.3793 32.6211 18.4267 32.6903 18.4643L38.0085 21.3567C38.1288 21.4221 38.2636 21.4564 38.4005 21.4564H41.7599C41.8258 21.4564 41.8889 21.4826 41.9354 21.5292C41.982 21.5758 42.0082 21.6389 42.0083 21.7047V22.2956C41.5929 21.9278 41.0485 21.7025 40.4514 21.7025C39.6248 21.7025 38.8978 22.1317 38.4778 22.7781L32.0407 19.815L27.7986 16.403C27.6409 16.2763 27.442 16.2122 27.24 16.2231C27.038 16.2341 26.8471 16.3193 26.7041 16.4623L26.2269 16.9397C24.6625 16.0622 23.6977 14.4206 23.6977 12.6154C23.6977 12.266 23.7346 11.9164 23.8074 11.5753C24.0815 11.355 24.4228 11.2353 24.7745 11.2361C25.1873 11.2361 25.5736 11.3952 25.8623 11.6839L28.9594 14.7809C29.1135 14.9337 29.3218 15.0192 29.5388 15.0187C29.7558 15.0182 29.9638 14.9318 30.1173 14.7784C30.2707 14.625 30.3571 14.417 30.3576 14.2C30.3581 13.983 30.2726 13.7746 30.1198 13.6205L29.8038 13.3046C32.4505 13.1228 34.5489 10.913 34.5489 8.22083V4.47698C34.5489 1.84096 32.4529 0 29.4517 0C26.4028 0 24.3543 1.7518 24.3543 4.35904V4.48212H21.5797C21.1264 4.48212 20.7591 4.8495 20.7591 5.30266C20.7591 5.75582 21.1264 6.1232 21.5797 6.1232H24.3543V8.22083C24.3543 8.70013 24.4217 9.1639 24.5461 9.60404C23.8474 9.65382 23.1853 9.92996 22.6614 10.396C22.6227 10.4303 12.0157 21.0341 12.0157 21.0341C10.776 22.2737 10.776 24.2909 12.0157 25.5306L17.4928 31.0077L15.7467 32.8242C14.0848 31.476 11.9687 30.6669 9.66684 30.6669C4.3365 30.6665 0 35.003 0 40.3333C0 43.6725 1.70213 46.6216 4.2841 48.3589H1.64622C1.19296 48.3589 0.825682 48.7263 0.825682 49.1795C0.825682 49.6326 1.19296 50 1.64622 50H55.195C55.6483 50 56.0155 49.6326 56.0155 49.1795C56.0155 48.7263 55.6483 48.3589 55.195 48.3589ZM32.9077 8.22061C32.9077 10.1264 31.3573 11.6768 29.4516 11.6768C29.1001 11.6771 28.7507 11.6235 28.4154 11.518V6.12298H32.9077V8.22061ZM25.9953 4.35882C25.9953 3.7212 26.2445 1.64086 29.4516 1.64086C31.0458 1.64086 32.9077 2.38361 32.9077 4.47676V4.4819H25.9953V4.35882ZM25.9953 6.12298H26.7743V10.3002C26.7171 10.2539 26.6582 10.2097 26.5978 10.1676C26.2046 9.59452 25.9945 8.91568 25.9953 8.22072V6.12298ZM40.4513 23.3435C40.8444 23.3435 41.1642 23.6632 41.1642 24.0563C41.1642 24.4494 40.8444 24.7692 40.4513 24.7692C40.2623 24.7689 40.0812 24.6937 39.9475 24.5601C39.8139 24.4264 39.7387 24.2453 39.7385 24.0563C39.7388 23.8673 39.814 23.6862 39.9476 23.5525C40.0812 23.4189 40.2624 23.3438 40.4513 23.3435ZM34.4309 23.5331C34.4309 23.2287 34.3833 22.9353 34.2957 22.6596L38.1293 24.4242C38.3069 25.5476 39.2789 26.4101 40.4514 26.4101C41.5047 26.4101 42.3985 25.7146 42.6981 24.7589H44.8155C45.6312 24.7589 46.2949 25.4225 46.2949 26.2382C46.2949 27.0541 45.6312 27.7177 44.8155 27.7177H31.183L33.3969 25.7491C33.721 25.478 33.9816 25.139 34.1603 24.7561C34.339 24.3731 34.4313 23.9557 34.4309 23.5331ZM32.7898 23.5331C32.7898 23.9062 32.6247 24.2572 32.3367 24.4964C32.3297 24.5023 32.3228 24.5083 32.3159 24.5145L28.7135 27.7178H26.6241V27.2352L27.6742 26.1851C27.7889 26.0703 27.8671 25.9241 27.8987 25.765C27.9304 25.6058 27.9141 25.4408 27.852 25.2909C27.7899 25.141 27.6848 25.0128 27.5499 24.9227C27.4149 24.8325 27.2563 24.7844 27.094 24.7844H26.6241V22.2819H31.5386C32.2285 22.2819 32.7898 22.8433 32.7898 23.5331ZM24.5663 29.3589H26.8681L24.7851 31.2112V30.6542C24.7844 30.5796 24.772 30.0239 24.5663 29.3589ZM26.2223 39.7486H25.4708C25.8391 39.3107 26.3892 39.0307 27.0052 39.0307C28.1137 39.0307 29.0155 39.9325 29.0155 41.041C29.0155 41.9792 28.3686 42.7669 27.4981 42.9876C27.5565 42.8356 27.5898 42.6714 27.5898 42.4992V41.1163C27.5898 40.362 26.9763 39.7486 26.2223 39.7486ZM25.9488 41.3897V42.2255H21.1027V41.3897H25.9488ZM23.144 30.6697L23.1442 39.5127H21.3691L20.7148 31.6383L22.8634 29.4898C23.1201 30.0398 23.1426 30.623 23.144 30.6697ZM21.2249 24.2623L23.311 22.1761H24.983V26.3025H23.2649L21.2249 24.2623ZM27.3439 18.1433L30.4492 20.641H26.2061C26.0834 20.5715 25.9447 20.535 25.8037 20.5351H24.9522L27.3439 18.1433ZM22.0899 13.2803C22.2881 15.2649 23.3657 17.0421 25.0327 18.1334L20.0644 23.1019L16.1663 19.2038L22.0899 13.2803ZM13.1761 24.3699C12.8873 24.0812 12.7283 23.6949 12.7283 23.2821C12.7283 22.8693 12.8873 22.483 13.1761 22.1943L15.006 20.3644L22.3371 27.6953L19.4192 30.613L13.1761 24.3699ZM18.6533 32.168L18.8388 32.3537C18.9248 32.4395 19.0288 32.505 19.1433 32.5455L19.7222 39.5127H19.2982C19.1194 37.3956 18.2556 35.471 16.9295 33.9613L18.6533 32.168ZM15.7871 35.1499C16.8076 36.3531 17.482 37.8588 17.6507 39.5126H16.9272C16.7643 38.0614 16.1756 36.7372 15.2879 35.6692L15.7871 35.1499ZM9.07485 40.5852C9.22418 40.936 9.5768 41.1538 9.99484 41.1538H15.2732C14.8744 43.8909 12.5126 45.9999 9.66662 45.9999C6.54211 45.9999 3.99997 43.4579 3.99997 40.3333C3.99997 37.2087 6.542 34.6666 9.66662 34.6666C10.8935 34.6666 12.0296 35.0597 12.9581 35.7249L9.30263 39.5279C9.01281 39.8293 8.92562 40.2345 9.07485 40.5852ZM11.5936 39.5127L14.1412 36.8623C14.7283 37.6174 15.1291 38.5237 15.2733 39.5127H11.5936ZM1.64108 40.3333C1.64108 35.9079 5.24128 32.3076 9.66662 32.3076C11.5275 32.3076 13.241 32.946 14.6038 34.0128L14.1042 34.5326C12.8729 33.5884 11.3346 33.0255 9.66662 33.0255C5.63711 33.0255 2.35889 36.3038 2.35889 40.3333C2.35889 44.3628 5.63711 47.641 9.66662 47.641C13.4187 47.641 16.5179 44.7983 16.9271 41.1538H17.6506C17.2383 45.1951 13.8149 48.3589 9.66651 48.3589C5.24128 48.3589 1.64108 44.7586 1.64108 40.3333ZM15.0452 48.3589C17.4147 46.7655 19.045 44.1535 19.2983 41.1538H19.4616V42.4991C19.4616 43.2532 20.075 43.8666 20.8291 43.8666H24.6962C25.3469 44.4012 26.1631 44.693 27.0052 44.6922C29.0186 44.6922 30.6566 43.0542 30.6566 41.0409C30.6572 40.2686 30.4116 39.5162 29.9554 38.8931L30.5644 38.2595C30.7126 38.1021 30.7928 37.8926 30.7874 37.6765C30.7821 37.4603 30.6916 37.255 30.5358 37.1052C30.3799 36.9554 30.1712 36.8731 29.955 36.8763C29.7388 36.8795 29.5326 36.9679 29.3812 37.1223L28.7146 37.8159C28.1885 37.5355 27.6014 37.3891 27.0052 37.3896C26.1703 37.3896 25.4008 37.672 24.7852 38.1454L24.7851 33.4071L29.3376 29.3589H36.8432L31.9049 34.4965C31.7541 34.6534 31.6718 34.8638 31.6761 35.0814C31.6804 35.299 31.771 35.5059 31.9279 35.6567C32.0848 35.8075 32.2951 35.8898 32.5127 35.8855C32.7303 35.8812 32.9372 35.7906 33.088 35.6338L39.1193 29.3589H39.6362L40.62 31.7437C37.5129 33.3532 35.3845 36.5993 35.3845 40.3333C35.3845 43.6725 37.0867 46.6216 39.6686 48.3589H15.0452ZM37.0258 40.3333C37.0258 37.2829 38.7366 34.625 41.2489 33.2675L41.5246 33.9357C39.2725 35.1821 37.7438 37.5822 37.7438 40.3334C37.7438 44.3629 41.022 47.6411 45.0515 47.6411C49.081 47.6411 52.3592 44.3629 52.3592 40.3334C52.3592 39.4811 52.2129 38.6454 51.9245 37.8493C51.8879 37.748 51.8316 37.6549 51.7589 37.5754C51.6862 37.4958 51.5986 37.4313 51.501 37.3856C51.4034 37.3399 51.2978 37.3139 51.1901 37.3091C51.0825 37.3042 50.9749 37.3206 50.8736 37.3573C50.669 37.4315 50.5022 37.5838 50.41 37.7809C50.3177 37.978 50.3075 38.2037 50.3816 38.4083C50.6051 39.0255 50.719 39.677 50.7181 40.3334C50.7181 43.458 48.1761 46 45.0515 46C41.9269 46 39.3848 43.458 39.3848 40.3334C39.3848 38.2663 40.4978 36.4551 42.1554 35.4652L44.2929 40.6463C44.3549 40.7966 44.4601 40.9251 44.5952 41.0155C44.7303 41.1059 44.8892 41.1542 45.0518 41.1541C45.1561 41.1541 45.2621 41.1341 45.3644 41.0919C45.5655 41.0089 45.7255 40.8494 45.8091 40.6485C45.8926 40.4476 45.893 40.2217 45.8101 40.0205L43.6719 34.8374C44.123 34.724 44.5864 34.6667 45.0515 34.6667C46.2298 34.6667 47.3602 35.0266 48.3203 35.7073C48.4979 35.8317 48.7175 35.8807 48.9311 35.8437C49.1447 35.8067 49.335 35.6867 49.4604 35.5098C49.5858 35.333 49.6362 35.1137 49.6004 34.8998C49.5646 34.686 49.4456 34.495 49.2695 34.3686C48.0305 33.4901 46.5719 33.0257 45.0515 33.0257C44.3544 33.0257 43.6804 33.1259 43.0414 33.309L42.7659 32.6412C43.5076 32.42 44.2776 32.3077 45.0516 32.3077C49.4769 32.3077 53.0771 35.908 53.0771 40.3334C53.0771 44.7587 49.4769 48.359 45.0516 48.359C40.6263 48.359 37.0258 44.7586 37.0258 40.3333Z" fill="black"/>
</svg>
