<svg width="50" height="50" viewBox="0 0 50 50" fill="none" xmlns="http://www.w3.org/2000/svg">
<path d="M50 25C50 11.2 38.8 0 25 0C11.2 0 0 11.2 0 25C0 38.8 11.2 50 25 50C38.8 50 50 38.8 50 25ZM19.15 36.0167C18.6622 35.5685 18.3711 34.9459 18.3399 34.2843C18.3086 33.6226 18.5399 32.9754 18.9833 32.4833L25.7833 25L18.9833 17.5167C18.5685 17.0213 18.3612 16.3847 18.4049 15.7401C18.4486 15.0954 18.7399 14.4926 19.2178 14.0578C19.6957 13.623 20.3232 13.3897 20.9691 13.4069C21.615 13.4241 22.2292 13.6904 22.6833 14.15L31.0167 23.3167C31.8833 24.2667 31.8833 25.7333 31.0167 26.6833L22.6833 35.85C22.2352 36.3378 21.6126 36.6289 20.9509 36.6601C20.2893 36.6913 19.6421 36.4601 19.15 36.0167Z" fill="#FFB743"/>
</svg>
