<svg width="26" height="50" viewBox="0 0 26 50" fill="none" xmlns="http://www.w3.org/2000/svg">
<path d="M23.2759 0H2.58623C1.15791 0 0 1.15791 0 2.58623V47.4138C0 48.8421 1.15791 50 2.58623 50H23.2759C24.7042 50 25.8621 48.8421 25.8621 47.4138V2.58623C25.8621 1.15791 24.7042 0 23.2759 0ZM9.48281 3.44824C9.48284 3.2196 9.57368 3.00034 9.73535 2.83867C9.89702 2.677 10.1163 2.58616 10.3449 2.58613H15.5174C15.7438 2.58954 15.9598 2.68187 16.1186 2.84318C16.2775 3.00448 16.3666 3.22182 16.3666 3.44824C16.3666 3.67467 16.2775 3.892 16.1186 4.05331C15.9598 4.21462 15.7438 4.30694 15.5174 4.31035H10.3449C10.1163 4.31035 9.897 4.21952 9.73532 4.05785C9.57364 3.89617 9.48281 3.67689 9.48281 3.44824ZM6.89658 2.58623C7.01057 2.58502 7.12367 2.60643 7.22934 2.64922C7.335 2.69201 7.43113 2.75533 7.51216 2.83552C7.5932 2.9157 7.65752 3.01116 7.70142 3.11636C7.74532 3.22157 7.76792 3.33444 7.76792 3.44844C7.76791 3.56244 7.7453 3.6753 7.70139 3.7805C7.65747 3.88571 7.59314 3.98116 7.51209 4.06133C7.43105 4.14151 7.33492 4.20481 7.22925 4.24759C7.12358 4.29037 7.01048 4.31177 6.89648 4.31055C6.66941 4.30812 6.45247 4.21621 6.29277 4.05477C6.13306 3.89334 6.04349 3.67542 6.0435 3.44834C6.04352 3.22126 6.13311 3.00335 6.29283 2.84193C6.45256 2.68052 6.66951 2.58863 6.89658 2.58623ZM12.9311 48.2759C11.9788 48.2759 11.2069 47.5039 11.2069 46.5518C11.2069 45.5995 11.9788 44.8276 12.9311 44.8276C13.8833 44.8276 14.6552 45.5995 14.6552 46.5518C14.6552 47.5039 13.8833 48.2759 12.9311 48.2759ZM24.138 32.7586V43.1034H1.72412V6.89658H24.1379V32.7586H24.138Z" fill="#707384"/>
<path d="M1.72412 32.7586H8.6207C8.62411 32.5322 8.71644 32.3162 8.87775 32.1573C9.03905 31.9984 9.25639 31.9094 9.48281 31.9094C9.70924 31.9094 9.92657 31.9984 10.0879 32.1573C10.2492 32.3162 10.3415 32.5322 10.3449 32.7586H12.069C12.0725 32.5322 12.1648 32.3162 12.3261 32.1573C12.4874 31.9984 12.7047 31.9094 12.9312 31.9094C13.1576 31.9094 13.3749 31.9984 13.5362 32.1573C13.6975 32.3162 13.7899 32.5322 13.7933 32.7586H15.5174C15.5208 32.5322 15.6131 32.3162 15.7744 32.1573C15.9357 31.9984 16.1531 31.9094 16.3795 31.9094C16.6059 31.9094 16.8233 31.9984 16.9846 32.1573C17.1459 32.3162 17.2382 32.5322 17.2416 32.7586H24.1382V6.89658H1.72412V32.7586ZM17.2414 11.2069C17.2414 10.9783 17.3323 10.759 17.4939 10.5974C17.6556 10.4357 17.8749 10.3448 18.1035 10.3448H21.5518C21.7804 10.3448 21.9997 10.4357 22.1613 10.5974C22.323 10.759 22.4138 10.9783 22.4139 11.2069V14.6552C22.4138 14.8838 22.323 15.1031 22.1613 15.2647C21.9997 15.4264 21.7804 15.5173 21.5518 15.5173H18.1035C17.8749 15.5173 17.6556 15.4264 17.4939 15.2647C17.3323 15.1031 17.2414 14.8838 17.2414 14.6552V11.2069ZM17.2414 18.1034C17.2414 17.8748 17.3323 17.6555 17.4939 17.4938C17.6556 17.3322 17.8749 17.2413 18.1035 17.2413H21.5518C21.7804 17.2413 21.9997 17.3322 22.1613 17.4938C22.323 17.6555 22.4138 17.8748 22.4139 18.1034V21.5517C22.4138 21.7803 22.323 21.9996 22.1613 22.1612C21.9997 22.3229 21.7804 22.4137 21.5518 22.4138H18.1035C17.8749 22.4137 17.6556 22.3229 17.4939 22.1612C17.3323 21.9996 17.2414 21.7803 17.2414 21.5517V18.1034ZM17.2414 25C17.2414 24.7714 17.3323 24.5521 17.4939 24.3904C17.6556 24.2287 17.8749 24.1379 18.1035 24.1379H21.5518C21.7804 24.1379 21.9997 24.2287 22.1613 24.3904C22.323 24.5521 22.4138 24.7714 22.4139 25V28.4482C22.4138 28.6769 22.323 28.8961 22.1613 29.0578C21.9997 29.2195 21.7804 29.3103 21.5518 29.3103H18.1035C17.8749 29.3103 17.6556 29.2195 17.4939 29.0578C17.3323 28.8961 17.2414 28.6769 17.2414 28.4482V25ZM10.3448 11.2069C10.3449 10.9783 10.4357 10.759 10.5974 10.5974C10.759 10.4357 10.9783 10.3448 11.2069 10.3448H14.6552C14.8838 10.3448 15.1031 10.4357 15.2647 10.5974C15.4264 10.759 15.5173 10.9783 15.5173 11.2069V14.6552C15.5173 14.8838 15.4264 15.1031 15.2647 15.2647C15.1031 15.4264 14.8838 15.5173 14.6552 15.5173H11.2069C10.9783 15.5173 10.759 15.4264 10.5974 15.2647C10.4357 15.1031 10.3449 14.8838 10.3448 14.6552V11.2069ZM10.3448 18.1034C10.3449 17.8748 10.4357 17.6555 10.5974 17.4938C10.759 17.3322 10.9783 17.2413 11.2069 17.2413H14.6552C14.8838 17.2413 15.1031 17.3322 15.2647 17.4938C15.4264 17.6555 15.5173 17.8748 15.5173 18.1034V21.5517C15.5173 21.7803 15.4264 21.9996 15.2647 22.1612C15.1031 22.3229 14.8838 22.4137 14.6552 22.4138H11.2069C10.9783 22.4137 10.759 22.3229 10.5974 22.1612C10.4357 21.9996 10.3449 21.7803 10.3448 21.5517V18.1034ZM10.3448 25C10.3449 24.7714 10.4357 24.5521 10.5974 24.3904C10.759 24.2287 10.9783 24.1379 11.2069 24.1379H14.6552C14.8838 24.1379 15.1031 24.2287 15.2647 24.3904C15.4264 24.5521 15.5173 24.7714 15.5173 25V28.4482C15.5173 28.6769 15.4264 28.8961 15.2647 29.0578C15.1031 29.2195 14.8838 29.3103 14.6552 29.3103H11.2069C10.9783 29.3103 10.759 29.2195 10.5974 29.0578C10.4357 28.8961 10.3449 28.6769 10.3448 28.4482V25ZM3.44834 11.2069C3.44837 10.9783 3.5392 10.759 3.70087 10.5974C3.86255 10.4357 4.08181 10.3448 4.31045 10.3448H7.75869C7.98733 10.3448 8.20659 10.4357 8.36827 10.5974C8.52994 10.759 8.62078 10.9783 8.6208 11.2069V14.6552C8.62078 14.8838 8.52994 15.1031 8.36827 15.2647C8.20659 15.4264 7.98733 15.5173 7.75869 15.5173H4.31045C4.08181 15.5173 3.86255 15.4264 3.70087 15.2647C3.5392 15.1031 3.44837 14.8838 3.44834 14.6552V11.2069ZM3.44834 18.1034C3.44837 17.8748 3.5392 17.6555 3.70087 17.4938C3.86255 17.3322 4.08181 17.2413 4.31045 17.2413H7.75869C7.98733 17.2413 8.20659 17.3322 8.36827 17.4938C8.52994 17.6555 8.62078 17.8748 8.6208 18.1034V21.5517C8.62078 21.7803 8.52994 21.9996 8.36827 22.1612C8.20659 22.3229 7.98733 22.4137 7.75869 22.4138H4.31045C4.08181 22.4137 3.86255 22.3229 3.70087 22.1612C3.5392 21.9996 3.44837 21.7803 3.44834 21.5517V18.1034ZM3.44834 25C3.44837 24.7714 3.5392 24.5521 3.70087 24.3904C3.86255 24.2287 4.08181 24.1379 4.31045 24.1379H7.75869C7.98733 24.1379 8.20659 24.2287 8.36827 24.3904C8.52994 24.5521 8.62078 24.7714 8.6208 25V28.4482C8.62078 28.6769 8.52994 28.8961 8.36827 29.0578C8.20659 29.2195 7.98733 29.3103 7.75869 29.3103H4.31045C4.08181 29.3103 3.86255 29.2195 3.70087 29.0578C3.5392 28.8961 3.44837 28.6769 3.44834 28.4482V25Z" fill="#63AFDB"/>
<path d="M16.3793 33.6207C16.1507 33.6207 15.9314 33.5299 15.7697 33.3682C15.6081 33.2065 15.5172 32.9872 15.5172 32.7586H13.7931C13.7897 32.985 13.6973 33.201 13.536 33.3599C13.3747 33.5188 13.1574 33.6078 12.931 33.6078C12.7045 33.6078 12.4872 33.5188 12.3259 33.3599C12.1646 33.201 12.0723 32.985 12.0689 32.7586H10.3447C10.3413 32.985 10.249 33.201 10.0877 33.3599C9.92639 33.5188 9.70905 33.6078 9.48263 33.6078C9.25621 33.6078 9.03887 33.5188 8.87756 33.3599C8.71626 33.201 8.62393 32.985 8.62052 32.7586H1.72394V43.1034H24.1377V32.7586H17.2411C17.2414 33.2347 16.8554 33.6207 16.3793 33.6207ZM8.62072 39.6552C8.62069 39.8838 8.52985 40.1031 8.36818 40.2648C8.20651 40.4264 7.98724 40.5173 7.75861 40.5173H4.31036C4.08173 40.5173 3.86246 40.4264 3.70079 40.2648C3.53912 40.1031 3.44828 39.8838 3.44825 39.6552V36.2069C3.44828 35.9783 3.53912 35.759 3.70079 35.5974C3.86246 35.4357 4.08173 35.3449 4.31036 35.3448H7.75861C7.98724 35.3449 8.20651 35.4357 8.36818 35.5974C8.52985 35.759 8.62069 35.9783 8.62072 36.2069V39.6552ZM15.5173 39.6552C15.5173 39.8838 15.4264 40.1031 15.2648 40.2648C15.1031 40.4264 14.8838 40.5173 14.6552 40.5173H11.2069C10.9783 40.5173 10.759 40.4264 10.5974 40.2648C10.4357 40.1031 10.3449 39.8838 10.3448 39.6552V36.2069C10.3449 35.9783 10.4357 35.759 10.5974 35.5974C10.759 35.4357 10.9783 35.3449 11.2069 35.3448H14.6552C14.8838 35.3449 15.1031 35.4357 15.2648 35.5974C15.4264 35.759 15.5173 35.9783 15.5173 36.2069V39.6552ZM18.1035 35.3448H21.5518C21.7804 35.3449 21.9997 35.4357 22.1613 35.5974C22.323 35.759 22.4139 35.9783 22.4139 36.2069V39.6552C22.4139 39.8838 22.323 40.1031 22.1613 40.2648C21.9997 40.4264 21.7804 40.5173 21.5518 40.5173H18.1035C17.8749 40.5173 17.6556 40.4264 17.494 40.2648C17.3323 40.1031 17.2414 39.8838 17.2414 39.6552V36.2069C17.2414 35.9783 17.3322 35.759 17.4939 35.5973C17.6556 35.4357 17.8749 35.3448 18.1035 35.3448Z" fill="#468CBE"/>
<path d="M10.3448 4.31037H15.5173C15.7437 4.30696 15.9597 4.21463 16.1186 4.05333C16.2775 3.89202 16.3665 3.67468 16.3665 3.44826C16.3665 3.22184 16.2775 3.0045 16.1186 2.84319C15.9597 2.68189 15.7437 2.58956 15.5173 2.58615H10.3448C10.1162 2.58618 9.89693 2.67701 9.73526 2.83869C9.57359 3.00036 9.48275 3.21962 9.48273 3.44826C9.48278 3.67689 9.57363 3.89614 9.73529 4.05781C9.89696 4.21947 10.1162 4.31032 10.3448 4.31037Z" fill="#464655"/>
<path d="M6.89659 4.31037C7.37272 4.31037 7.7587 3.92439 7.7587 3.44826C7.7587 2.97213 7.37272 2.58615 6.89659 2.58615C6.42046 2.58615 6.03448 2.97213 6.03448 3.44826C6.03448 3.92439 6.42046 4.31037 6.89659 4.31037Z" fill="#464655"/>
<path d="M12.931 48.2759C13.8832 48.2759 14.6552 47.504 14.6552 46.5518C14.6552 45.5996 13.8832 44.8276 12.931 44.8276C11.9788 44.8276 11.2069 45.5996 11.2069 46.5518C11.2069 47.504 11.9788 48.2759 12.931 48.2759Z" fill="#464655"/>
<path d="M14.6552 35.3448H11.207C10.9783 35.3449 10.7591 35.4357 10.5974 35.5974C10.4357 35.7591 10.3449 35.9783 10.3448 36.207V39.6552C10.3449 39.8838 10.4357 40.1031 10.5974 40.2648C10.7591 40.4264 10.9783 40.5173 11.207 40.5173H14.6552C14.8838 40.5173 15.1031 40.4264 15.2648 40.2648C15.4264 40.1031 15.5173 39.8838 15.5173 39.6552V36.207C15.5173 35.9783 15.4264 35.7591 15.2648 35.5974C15.1031 35.4357 14.8838 35.3449 14.6552 35.3448ZM12.9311 39.6552C11.9788 39.6552 11.207 38.8832 11.207 37.9311C11.207 36.9788 11.9788 36.207 12.9311 36.207C13.8833 36.207 14.6552 36.9788 14.6552 37.9311C14.6552 38.8832 13.8833 39.6552 12.9311 39.6552Z" fill="#63AFDB"/>
<path d="M17.2414 39.6552C17.2414 39.8838 17.3323 40.1031 17.4939 40.2648C17.6556 40.4264 17.8749 40.5173 18.1035 40.5173H21.5517C21.7804 40.5173 21.9996 40.4264 22.1613 40.2648C22.323 40.1031 22.4138 39.8838 22.4139 39.6552V36.207C22.4138 35.9783 22.323 35.7591 22.1613 35.5974C21.9996 35.4357 21.7804 35.3449 21.5517 35.3448H18.1035C17.8749 35.3449 17.6556 35.4357 17.4939 35.5974C17.3323 35.7591 17.2414 35.9783 17.2414 36.207V39.6552Z" fill="#FF6469"/>
<path d="M7.75859 35.3448H4.31035C4.08171 35.3449 3.86245 35.4357 3.70078 35.5974C3.53911 35.7591 3.44827 35.9783 3.44824 36.207V39.6552C3.44827 39.8838 3.53911 40.1031 3.70078 40.2648C3.86245 40.4264 4.08171 40.5173 4.31035 40.5173H7.75859C7.98723 40.5173 8.2065 40.4264 8.36817 40.2648C8.52984 40.1031 8.62068 39.8838 8.6207 39.6552V36.207C8.6207 35.9783 8.52987 35.759 8.3682 35.5974C8.20652 35.4357 7.98724 35.3448 7.75859 35.3448Z" fill="#00DCCD"/>
<path d="M11.207 29.3103H14.6552C14.8838 29.3103 15.1031 29.2195 15.2648 29.0578C15.4264 28.8961 15.5173 28.6769 15.5173 28.4482V25C15.5173 24.7714 15.4264 24.5521 15.2648 24.3904C15.1031 24.2287 14.8838 24.1379 14.6552 24.1379H11.207C10.9783 24.1379 10.7591 24.2287 10.5974 24.3904C10.4357 24.5521 10.3449 24.7714 10.3448 25V28.4482C10.3449 28.6769 10.4357 28.8961 10.5974 29.0578C10.7591 29.2195 10.9783 29.3103 11.207 29.3103Z" fill="#FFDC69"/>
<path d="M18.1035 29.3103H21.5517C21.7804 29.3103 21.9996 29.2195 22.1613 29.0578C22.323 28.8961 22.4138 28.6769 22.4139 28.4482V25C22.4138 24.7714 22.323 24.5521 22.1613 24.3904C21.9996 24.2287 21.7804 24.1379 21.5517 24.1379H18.1035C17.8749 24.1379 17.6556 24.2287 17.4939 24.3904C17.3323 24.5521 17.2414 24.7714 17.2414 25V28.4482C17.2414 28.6769 17.3322 28.8962 17.4939 29.0578C17.6556 29.2195 17.8749 29.3103 18.1035 29.3103ZM18.1035 26.7241C18.1035 26.4955 18.1944 26.2762 18.356 26.1145C18.5177 25.9529 18.737 25.862 18.9656 25.862H20.6897C20.9161 25.8654 21.1321 25.9577 21.291 26.119C21.4499 26.2803 21.539 26.4977 21.539 26.7241C21.539 26.9505 21.4499 27.1679 21.291 27.3292C21.1321 27.4905 20.9161 27.5828 20.6897 27.5862H18.9656C18.737 27.5862 18.5177 27.4954 18.356 27.3337C18.1943 27.172 18.1035 26.9528 18.1035 26.7241Z" fill="white"/>
<path d="M4.31035 29.3103H7.75859C7.98723 29.3103 8.2065 29.2195 8.36817 29.0578C8.52984 28.8961 8.62068 28.6769 8.6207 28.4482V25C8.62068 24.7714 8.52984 24.5521 8.36817 24.3904C8.2065 24.2287 7.98723 24.1379 7.75859 24.1379H4.31035C4.08171 24.1379 3.86245 24.2287 3.70078 24.3904C3.53911 24.5521 3.44827 24.7714 3.44824 25V28.4482C3.44829 28.6769 3.53914 28.8961 3.70081 29.0578C3.86247 29.2194 4.08172 29.3103 4.31035 29.3103ZM4.31035 26.7241C4.31038 26.4955 4.40122 26.2762 4.56289 26.1145C4.72456 25.9529 4.94382 25.862 5.17246 25.862H6.89658C7.12298 25.8654 7.33895 25.9577 7.49785 26.119C7.65675 26.2803 7.74581 26.4977 7.74581 26.7241C7.74581 26.9505 7.65675 27.1679 7.49785 27.3292C7.33895 27.4905 7.12298 27.5828 6.89658 27.5862H5.17246C4.94382 27.5862 4.72456 27.4954 4.56289 27.3337C4.40122 27.172 4.31038 26.9527 4.31035 26.7241Z" fill="#468CBE"/>
<path d="M11.207 22.4138H14.6552C14.8838 22.4138 15.1031 22.3229 15.2648 22.1613C15.4264 21.9996 15.5173 21.7803 15.5173 21.5517V18.1034C15.5173 17.8748 15.4264 17.6555 15.2648 17.4939C15.1031 17.3322 14.8838 17.2414 14.6552 17.2413H11.207C10.9783 17.2414 10.7591 17.3322 10.5974 17.4939C10.4357 17.6555 10.3449 17.8748 10.3448 18.1034V21.5517C10.3448 21.7803 10.4357 21.9996 10.5974 22.1613C10.759 22.323 10.9783 22.4138 11.207 22.4138ZM11.207 19.8276C11.207 19.5989 11.2978 19.3797 11.4595 19.218C11.6212 19.0563 11.8404 18.9655 12.0691 18.9655H13.7932C14.0196 18.9689 14.2356 19.0612 14.3945 19.2225C14.5534 19.3838 14.6424 19.6011 14.6424 19.8276C14.6424 20.054 14.5534 20.2713 14.3945 20.4326C14.2356 20.5939 14.0196 20.6863 13.7932 20.6897H12.0691C11.9559 20.6897 11.8437 20.6674 11.7391 20.6241C11.6345 20.5808 11.5395 20.5173 11.4594 20.4372C11.3794 20.3571 11.3159 20.2621 11.2726 20.1575C11.2292 20.0529 11.2069 19.9408 11.207 19.8276Z" fill="#464655"/>
<path d="M18.1035 22.4138H21.5517C21.7804 22.4138 21.9996 22.3229 22.1613 22.1613C22.323 21.9996 22.4138 21.7803 22.4139 21.5517V18.1034C22.4138 17.8748 22.323 17.6555 22.1613 17.4939C21.9996 17.3322 21.7804 17.2414 21.5517 17.2413H18.1035C17.8749 17.2414 17.6556 17.3322 17.4939 17.4939C17.3323 17.6555 17.2414 17.8748 17.2414 18.1034V21.5517C17.2414 21.6649 17.2637 21.777 17.307 21.8816C17.3503 21.9862 17.4138 22.0813 17.4939 22.1613C17.5739 22.2414 17.669 22.3049 17.7736 22.3482C17.8782 22.3915 17.9903 22.4138 18.1035 22.4138Z" fill="#FFA055"/>
<path d="M4.31035 22.4138H7.75859C7.98723 22.4138 8.2065 22.3229 8.36817 22.1613C8.52984 21.9996 8.62068 21.7803 8.6207 21.5517V18.1034C8.62068 17.8748 8.52984 17.6555 8.36817 17.4939C8.2065 17.3322 7.98723 17.2414 7.75859 17.2413H4.31035C4.08171 17.2414 3.86245 17.3322 3.70078 17.4939C3.53911 17.6555 3.44827 17.8748 3.44824 18.1034V21.5517C3.44827 21.7803 3.53911 21.9996 3.70078 22.1613C3.86245 22.3229 4.08171 22.4138 4.31035 22.4138ZM6.03447 18.1034C6.98672 18.1034 7.75859 18.8753 7.75859 19.8276C7.75859 20.7797 6.98672 21.5517 6.03447 21.5517C5.08223 21.5517 4.31035 20.7797 4.31035 19.8276C4.31035 18.8753 5.08223 18.1034 6.03447 18.1034Z" fill="#A0D778"/>
<path d="M11.207 15.5173H14.6552C14.8838 15.5173 15.1031 15.4264 15.2648 15.2648C15.4264 15.1031 15.5173 14.8838 15.5173 14.6552V11.207C15.5173 10.9783 15.4264 10.7591 15.2648 10.5974C15.1031 10.4357 14.8838 10.3449 14.6552 10.3448H11.207C10.9783 10.3449 10.7591 10.4357 10.5974 10.5974C10.4357 10.7591 10.3449 10.9783 10.3448 11.207V14.6552C10.3449 14.8838 10.4357 15.1031 10.5974 15.2648C10.7591 15.4264 10.9783 15.5173 11.207 15.5173Z" fill="#FF6469"/>
<path d="M18.1035 15.5173H21.5517C21.7804 15.5173 21.9996 15.4264 22.1613 15.2648C22.323 15.1031 22.4138 14.8838 22.4139 14.6552V11.207C22.4138 10.9783 22.323 10.7591 22.1613 10.5974C21.9996 10.4357 21.7804 10.3449 21.5517 10.3448H18.1035C17.8749 10.3449 17.6556 10.4357 17.4939 10.5974C17.3323 10.7591 17.2414 10.9783 17.2414 11.207V14.6552C17.2414 14.8838 17.3322 15.1031 17.4939 15.2648C17.6556 15.4265 17.8749 15.5173 18.1035 15.5173ZM19.8276 11.207C20.7799 11.207 21.5517 11.9788 21.5517 12.9311C21.5517 13.8832 20.7799 14.6552 19.8276 14.6552C18.8754 14.6552 18.1035 13.8832 18.1035 12.9311C18.1035 11.9788 18.8754 11.207 19.8276 11.207Z" fill="#00DCCD"/>
<path d="M4.31035 15.5173H7.75859C7.98723 15.5173 8.2065 15.4264 8.36817 15.2648C8.52984 15.1031 8.62068 14.8838 8.6207 14.6552V11.207C8.62068 10.9783 8.52984 10.7591 8.36817 10.5974C8.2065 10.4357 7.98723 10.3449 7.75859 10.3448H4.31035C4.08171 10.3449 3.86245 10.4357 3.70078 10.5974C3.53911 10.7591 3.44827 10.9783 3.44824 11.207V14.6552C3.44829 14.8838 3.53914 15.1031 3.70081 15.2647C3.86247 15.4264 4.08172 15.5173 4.31035 15.5173Z" fill="#FFDC69"/>
<path d="M6.03448 21.5516C6.98669 21.5516 7.75861 20.7797 7.75861 19.8275C7.75861 18.8753 6.98669 18.1034 6.03448 18.1034C5.08228 18.1034 4.31036 18.8753 4.31036 19.8275C4.31036 20.7797 5.08228 21.5516 6.03448 21.5516Z" fill="#FFDC69"/>
<path d="M12.931 39.6552C13.8832 39.6552 14.6552 38.8832 14.6552 37.931C14.6552 36.9788 13.8832 36.2069 12.931 36.2069C11.9788 36.2069 11.2069 36.9788 11.2069 37.931C11.2069 38.8832 11.9788 39.6552 12.931 39.6552Z" fill="#FFDC69"/>
<path d="M19.8276 14.6552C20.7798 14.6552 21.5518 13.8832 21.5518 12.931C21.5518 11.9788 20.7798 11.2069 19.8276 11.2069C18.8754 11.2069 18.1035 11.9788 18.1035 12.931C18.1035 13.8832 18.8754 14.6552 19.8276 14.6552Z" fill="#FF6469"/>
<path d="M12.069 20.6897H13.7931C14.0195 20.6863 14.2354 20.5939 14.3943 20.4326C14.5532 20.2713 14.6423 20.054 14.6423 19.8276C14.6423 19.6011 14.5532 19.3838 14.3943 19.2225C14.2354 19.0612 14.0195 18.9689 13.7931 18.9655H12.069C11.8426 18.9689 11.6266 19.0612 11.4677 19.2225C11.3088 19.3838 11.2197 19.6011 11.2197 19.8276C11.2197 20.054 11.3088 20.2713 11.4677 20.4326C11.6266 20.5939 11.8426 20.6863 12.069 20.6897Z" fill="#468CBE"/>
<path d="M18.9655 27.5862H20.6896C20.916 27.5828 21.132 27.4905 21.2909 27.3292C21.4498 27.1679 21.5389 26.9505 21.5389 26.7241C21.5389 26.4977 21.4498 26.2803 21.2909 26.119C21.132 25.9577 20.916 25.8654 20.6896 25.862H18.9655C18.7369 25.862 18.5176 25.9529 18.3559 26.1145C18.1943 26.2762 18.1034 26.4955 18.1034 26.7241C18.1034 26.9527 18.1943 27.172 18.356 27.3337C18.5176 27.4953 18.7369 27.5862 18.9655 27.5862Z" fill="#FF6469"/>
<path d="M5.17247 27.5862H6.89659C7.12299 27.5828 7.33896 27.4905 7.49786 27.3292C7.65676 27.1679 7.74582 26.9505 7.74582 26.7241C7.74582 26.4977 7.65676 26.2803 7.49786 26.119C7.33896 25.9577 7.12299 25.8654 6.89659 25.862H5.17247C4.94607 25.8654 4.7301 25.9577 4.57121 26.119C4.41231 26.2803 4.32324 26.4977 4.32324 26.7241C4.32324 26.9505 4.41231 27.1679 4.57121 27.3292C4.7301 27.4905 4.94607 27.5828 5.17247 27.5862Z" fill="white"/>
<path d="M9.48284 33.6207C9.95897 33.6207 10.3449 33.2347 10.3449 32.7586C10.3449 32.2825 9.95897 31.8965 9.48284 31.8965C9.00671 31.8965 8.62073 32.2825 8.62073 32.7586C8.62073 33.2347 9.00671 33.6207 9.48284 33.6207Z" fill="#464655"/>
<path d="M12.9311 33.6207C13.4072 33.6207 13.7932 33.2347 13.7932 32.7586C13.7932 32.2825 13.4072 31.8965 12.9311 31.8965C12.4549 31.8965 12.069 32.2825 12.069 32.7586C12.069 33.2347 12.4549 33.6207 12.9311 33.6207Z" fill="white"/>
<path d="M16.3793 33.6207C16.8555 33.6207 17.2414 33.2347 17.2414 32.7586C17.2414 32.2825 16.8555 31.8965 16.3793 31.8965C15.9032 31.8965 15.5172 32.2825 15.5172 32.7586C15.5172 33.2347 15.9032 33.6207 16.3793 33.6207Z" fill="white"/>
</svg>
