<svg width="56" height="50" viewBox="0 0 56 50" fill="none" xmlns="http://www.w3.org/2000/svg">
<path d="M55.9958 49.032L51.5955 24.7894C51.5739 24.6699 51.5259 24.5566 51.4552 24.4579C51.3845 24.3591 51.2927 24.2773 51.1865 24.2182L40.1114 18.0584C39.9702 17.9802 39.8091 17.9456 39.6482 17.9587L41.6631 43.9513L41.5956 43.9814L54.8501 49.9277C54.9866 49.9891 55.1374 50.012 55.286 49.9939C55.4346 49.9758 55.5755 49.9175 55.6934 49.8252C55.8113 49.7331 55.9018 49.6105 55.9551 49.4707C56.0084 49.3309 56.0225 49.1792 55.9958 49.032ZM28.0045 23.9472L16.6774 18.0475C16.5436 17.9782 16.3933 17.9472 16.2429 17.9578C16.2822 17.9554 16.3217 17.9556 16.3609 17.9587L14.3459 43.9513L27.6679 49.9278C27.7738 49.9753 27.8885 49.9998 28.0045 49.9999V23.9472Z" fill="#44C868"/>
<path d="M16.3607 17.9588C16.1999 17.9457 16.0388 17.9803 15.8975 18.0583L4.8223 24.2182C4.71611 24.2772 4.62434 24.3591 4.5536 24.4578C4.48287 24.5566 4.43495 24.6698 4.41328 24.7894L0.0131792 49.032C-0.0135243 49.1792 0.000518534 49.3309 0.0537898 49.4707C0.107061 49.6106 0.197535 49.7332 0.315431 49.8253C0.433345 49.9175 0.574207 49.9758 0.722821 49.9939C0.871435 50.012 1.02216 49.9891 1.15874 49.9278L14.341 44.0139L16.3607 17.9588ZM39.6481 17.9583C39.5376 17.9664 39.4299 17.9968 39.3315 18.0477L28.0044 23.9473V50H28.0046C28.1206 50 28.2353 49.9754 28.3412 49.9279L41.6631 43.9514L39.6481 17.9583Z" fill="#4CE166"/>
<path d="M3.07976 32.1361L2.18591 37.0608L15.4218 30.07L15.729 26.1057L15.78 25.4483L3.07976 32.1361Z" fill="#FFDB56"/>
<path d="M15.5409 28.5328L15.4218 30.07L2.18593 37.0608L0.0131792 49.032C-0.0135243 49.1792 0.000518534 49.3309 0.0537898 49.4708C0.107061 49.6106 0.197535 49.7332 0.315431 49.8253C0.433345 49.9175 0.574207 49.9758 0.722821 49.9939C0.871435 50.012 1.02216 49.9891 1.15874 49.9278L14.341 44.0139L15.5409 28.5328Z" fill="#A8EEFC"/>
<path d="M28.0078 27.1967L15.7801 25.4482L15.4218 30.07L28.0045 49.1786V42.2302L20.4961 30.4072L28.0078 31.3057V27.1967ZM50.3147 23.7334L44.9943 20.7742L39.9577 21.9511L40.0207 22.7645L40.2695 25.9734L50.3147 23.7334Z" fill="#FFBB24"/>
<path d="M40.7162 31.736L40.2392 25.5828L39.9578 21.9511L28.0078 27.1967V31.3057L35.8136 27.9112L40.7162 31.736Z" fill="#FFDB56"/>
<path d="M55.9958 49.032L54.8906 42.9425L40.2695 25.9734L40.7162 31.736L55.7107 49.81C55.823 49.7173 55.9086 49.5963 55.9587 49.4596C56.0088 49.3229 56.0216 49.1753 55.9958 49.032Z" fill="#FFBB24"/>
<path d="M28.0571 0C21.7164 0 16.5577 5.15436 16.5577 11.4899C16.5577 15.409 18.4184 19.6167 22.0882 23.9959C24.7835 27.2124 27.4422 29.2811 27.5541 29.3676C27.6981 29.4791 27.8751 29.5395 28.0572 29.5394C28.2393 29.5395 28.4163 29.4791 28.5603 29.3676C28.6721 29.2811 31.3309 27.2124 34.0262 23.9959C37.696 19.6167 39.5567 15.4091 39.5567 11.4899C39.5564 5.15436 34.3978 0 28.0571 0ZM32.3157 11.4898C32.3157 13.8398 30.409 15.745 28.0571 15.745C25.7051 15.745 23.7984 13.8399 23.7984 11.4898C23.7984 9.13975 25.7051 7.23468 28.0571 7.23468C30.409 7.23468 32.3157 9.13986 32.3157 11.4898Z" fill="#FF4A4A"/>
<path d="M28.0571 0C27.5546 0 27.0596 0.032599 26.5739 0.0953903C32.2167 0.824711 36.5901 5.65647 36.5901 11.4899C36.5901 15.409 34.7294 19.6167 31.0596 23.9959C29.3263 26.0643 27.6094 27.657 26.574 28.5542C27.1487 29.0522 27.5143 29.3368 27.5541 29.3676C27.6981 29.4791 27.8751 29.5395 28.0572 29.5394C28.2393 29.5395 28.4163 29.4791 28.5603 29.3676C28.6721 29.2811 31.3309 27.2124 34.0262 23.9959C37.696 19.6167 39.5567 15.4091 39.5567 11.4899C39.5565 5.15436 34.3978 0 28.0571 0Z" fill="#E7343F"/>
<path d="M28.3412 49.9279L33.2951 47.7054L28.0045 42.2302V49.9999H28.0046C28.1207 50 28.2354 49.9754 28.3412 49.9279Z" fill="#FFDB56"/>
<path d="M51.5954 24.7894C51.5737 24.6699 51.5258 24.5566 51.4551 24.4579C51.3843 24.3591 51.2926 24.2773 51.1864 24.2182L50.3145 23.7333L40.2693 25.9733L54.8903 42.9424L51.5954 24.7894ZM28.0044 49.9999C28.0045 49.9999 28.0045 49.9999 28.0044 49.9999V49.1786L15.4218 30.07L14.3457 43.9514L27.6676 49.9279C27.7735 49.9754 27.8883 49.9999 28.0044 49.9999Z" fill="#1EA4E9"/>
</svg>
