<svg width="69" height="50" viewBox="0 0 69 50" fill="none" xmlns="http://www.w3.org/2000/svg">
<path d="M66.9525 48.3439C66.9527 47.6992 66.9519 47.0544 66.9507 46.4098V46.4051C66.9468 43.9853 66.9385 41.5656 66.9541 39.1462C66.9848 34.3913 67.0484 29.637 67.0772 24.8819L67.0788 24.6087L67.0804 24.342C67.0863 23.2649 67.0161 22.1854 66.9225 21.1081C66.852 20.2979 66.542 20.0829 65.3132 19.9441C64.7728 19.8831 64.2267 19.83 63.68 19.7943C63.3554 19.7728 63.0304 19.7583 62.7053 19.7508H62.7027C62.3647 19.7435 62.0269 19.7365 61.6889 19.7299L61.4994 19.7261C61.1701 19.7196 60.8408 19.7135 60.5115 19.7075L60.3642 19.7049C57.4931 19.6527 54.6219 19.6144 51.7511 19.5513C47.0732 19.4485 42.3958 19.3154 37.718 19.2062C34.5989 19.1333 31.4794 19.0751 28.3601 19.018C27.296 18.9985 26.2311 19.0211 25.1677 18.9909C22.9243 18.9273 20.6814 18.8456 18.4387 18.7638C16.5764 18.6959 14.7152 18.5969 12.8524 18.5489C12.5729 18.5416 12.2934 18.5348 12.0139 18.5284H12.0134C11.5905 18.5187 11.1676 18.5097 10.7446 18.5021L10.6941 18.5011C10.4943 18.4976 10.2946 18.4943 10.0948 18.4912L10.025 18.4902C9.82349 18.4873 9.62187 18.4846 9.42041 18.4823L9.39541 18.482C9.1979 18.4797 9.00039 18.4779 8.80288 18.4765L8.74655 18.476C8.55402 18.4745 8.36149 18.4735 8.16895 18.4729L8.06668 18.4726C7.87723 18.4721 7.68795 18.4717 7.4985 18.4719L7.4071 18.4721C7.20938 18.4724 7.01181 18.473 6.81425 18.4743C6.44136 18.4766 6.06766 18.5115 5.6964 18.561C5.32513 18.6105 4.95646 18.675 4.59348 18.7364C4.36069 18.7758 4.16263 18.8364 4.00143 18.918C3.98682 18.9255 3.97238 18.9331 3.95841 18.9409C3.87897 18.9845 3.80529 19.0379 3.7391 19.0998C3.69869 19.1383 3.66235 19.1808 3.63066 19.2268C3.60748 19.2605 3.58707 19.2961 3.56962 19.3331C3.52792 19.4228 3.503 19.5195 3.49608 19.6182C3.48798 19.7198 3.47851 19.8213 3.46767 19.9227C3.44608 20.1256 3.41978 20.3284 3.39299 20.531C3.37952 20.6323 3.36605 20.7336 3.3529 20.835C3.33975 20.9363 3.32692 21.0376 3.31491 21.1391C3.27903 21.4432 3.25095 21.7474 3.24446 22.0522C3.24162 22.1864 3.23918 22.3206 3.23715 22.4548L3.23585 22.5537C3.23439 22.6581 3.23293 22.7626 3.23196 22.867L3.23115 22.954C3.23001 23.0665 3.2292 23.179 3.22855 23.2917L3.22822 23.3425C3.21929 24.9006 3.24267 26.4595 3.21004 28.0172C3.10761 32.9132 2.99056 37.809 2.87482 42.7048V42.708C2.83991 44.1819 2.80517 45.6557 2.77108 47.1294C2.76865 47.2343 2.77059 47.3325 2.77758 47.4242C2.77985 47.4549 2.78277 47.4848 2.78634 47.514C2.79673 47.6017 2.81248 47.6832 2.83407 47.759C2.85566 47.8348 2.88309 47.9049 2.91719 47.9697C2.94536 48.0232 2.97852 48.074 3.01621 48.1213C3.06913 48.1872 3.13163 48.2466 3.20468 48.3C3.23602 48.3229 3.26929 48.3448 3.30468 48.3656C3.34007 48.3864 3.37741 48.4064 3.41686 48.4252C3.48675 48.4585 3.55864 48.4874 3.63212 48.5117C3.95906 48.6226 4.39591 48.6916 4.96978 48.7385C5.02643 48.7432 5.08341 48.7458 5.14039 48.7478C5.19753 48.7499 5.25468 48.7512 5.31166 48.7533L5.31929 48.7536L5.96896 48.7778L6.19526 48.7864L6.62383 48.8028L6.90077 48.8135L7.1847 48.8246C8.49979 48.8757 9.81472 48.9283 11.1298 48.9757H11.1301C12.1181 49.0114 13.1061 49.044 14.0943 49.071C20.6744 49.2504 27.2554 49.4049 33.8361 49.5695L33.8362 49.5616C36.157 49.6197 38.4776 49.6976 40.7984 49.7319C47.4552 49.8299 54.1122 49.9172 60.7692 49.9939C61.3107 50.0002 61.8522 50.0016 62.3938 49.9981C63.2963 49.9927 64.1985 49.975 65.0986 49.9486C65.1226 49.9479 65.1463 49.947 65.1699 49.946L65.1877 49.9452L65.2522 49.9421L65.2575 49.9418C65.2853 49.9401 65.3131 49.9383 65.3408 49.9364C65.3611 49.9349 65.3811 49.9335 65.4009 49.9317L65.4077 49.9312C65.4298 49.9293 65.4517 49.9273 65.4733 49.925L65.4847 49.9239L65.5431 49.9174L65.5493 49.9168L65.6129 49.9086L65.6192 49.9078L65.6778 49.8992L65.6824 49.8986C65.7033 49.8953 65.7241 49.8918 65.7445 49.8882L65.7454 49.888C65.7655 49.8845 65.7853 49.8807 65.8049 49.8768L65.8079 49.8762C65.8478 49.8682 65.8866 49.8595 65.9241 49.8502L65.9256 49.8499C65.9634 49.8405 66.0001 49.8304 66.0355 49.8195L66.0359 49.8194C66.5648 49.6583 66.8303 49.3444 66.9246 48.8461C66.9551 48.6806 66.9525 48.5116 66.9525 48.3439Z" fill="#66CC99"/>
<path d="M58.0895 44.9889C58.4702 44.3019 58.9804 43.7371 59.6299 43.2954C60.2738 42.8575 60.9817 42.5748 61.7525 42.495C62.2728 42.4412 62.8018 42.4421 63.3255 42.4605C63.4315 42.4642 63.5362 42.4728 63.64 42.4856C63.6348 41.1116 63.6314 39.7376 63.6382 38.3639C63.6559 34.7795 63.6981 31.1956 63.7187 27.6113C63.3075 27.6096 62.8971 27.581 62.49 27.5022C61.5421 27.3193 60.7341 26.8685 60.0197 26.2271C59.2684 25.5526 58.7041 24.7531 58.3796 23.7976C58.2062 23.2872 58.1095 22.7825 58.0916 22.2839C55.396 22.2325 52.7001 22.1948 50.0046 22.1349C45.8198 22.042 41.6352 21.924 37.4505 21.8256C34.6601 21.7601 31.8695 21.7068 29.0787 21.6542C28.1268 21.6364 27.1742 21.6532 26.2229 21.6265C24.2159 21.5701 22.2093 21.4987 20.203 21.4273C18.5369 21.368 16.8716 21.283 15.2053 21.2401C14.1656 21.2133 13.1252 21.1916 12.0853 21.1789C12.0589 21.4607 12.0081 21.7398 11.9335 22.0128C11.8493 22.323 11.7413 22.6269 11.6442 22.9338C11.2473 23.7734 10.7842 24.5609 10.0673 25.1693C9.35641 25.7725 8.53758 26.1261 7.60187 26.1732C7.26908 26.1899 6.93613 26.1971 6.60399 26.1829C6.60723 27.1397 6.61503 28.0966 6.59538 29.0529C6.51324 33.0465 6.41827 37.04 6.32428 41.0334C6.3936 41.0352 6.46275 41.0371 6.53191 41.0395C7.23645 41.064 7.8897 41.3022 8.5168 41.6114C8.74911 41.7261 8.97573 41.8525 9.20511 41.973C9.61209 42.1864 9.97946 42.4522 10.2718 42.8098C10.3821 42.9447 10.4858 43.0887 10.5686 43.2415C10.7885 43.6475 11.0392 44.0442 11.1983 44.4741C11.4173 45.0613 11.5072 45.6889 11.4618 46.314C13.0968 46.3762 14.7319 46.4368 16.3674 46.4811C22.2543 46.6407 28.1416 46.7794 34.0289 46.9267L34.029 46.9202C36.1052 46.9721 38.1813 47.0406 40.2574 47.0728C45.9909 47.1619 51.7243 47.2418 57.4575 47.3147C57.4629 46.5226 57.6697 45.7465 58.0895 44.9889Z" fill="#339966"/>
<path d="M18.1946 34.8232C17.9952 35.2449 17.7626 35.6405 17.4024 35.9462C17.0452 36.2493 16.6339 36.4269 16.1637 36.4506C15.8438 36.4667 15.5231 36.4657 15.2066 36.4045C14.7303 36.3126 14.3244 36.0862 13.9657 35.7639C13.5883 35.4251 13.3048 35.0235 13.1417 34.5435C12.904 33.8441 12.9519 33.1657 13.3129 32.5144C13.4996 32.1733 13.7649 31.8817 14.0868 31.6636C14.4102 31.4436 14.7658 31.3016 15.153 31.2615C15.4144 31.2344 15.6801 31.2349 15.9433 31.2441C16.2972 31.2565 16.6254 31.3761 16.9405 31.5315C17.0572 31.5891 17.171 31.6526 17.2863 31.7131C17.4908 31.8204 17.6752 31.9539 17.8222 32.1336C17.8775 32.2013 17.9296 32.2737 17.9712 32.3504C18.0817 32.5543 18.2076 32.7537 18.2876 32.9696C18.4558 33.4237 18.467 33.8923 18.3399 34.3608C18.2976 34.5163 18.2434 34.6689 18.1946 34.8232ZM57.0241 35.7944C56.8248 36.2162 56.5922 36.6118 56.2319 36.9175C55.8748 37.2206 55.4634 37.3982 54.9933 37.4219C54.6733 37.4379 54.3527 37.437 54.036 37.3758C53.5599 37.2839 53.1539 37.0574 52.7951 36.7352C52.4177 36.3964 52.1342 35.9948 51.9711 35.5147C51.7334 34.8154 51.7813 34.137 52.1423 33.4857C52.329 33.1446 52.5943 32.8529 52.9162 32.6349C53.2396 32.4149 53.5952 32.2729 53.9824 32.2328C54.2438 32.2056 54.5095 32.2061 54.7727 32.2154C55.1266 32.2277 55.4548 32.3474 55.7699 32.5027C55.8866 32.5604 56.0004 32.6238 56.1157 32.6844C56.3202 32.7917 56.5047 32.9251 56.6516 33.1048C56.7069 33.1725 56.759 33.2449 56.8006 33.3217C56.9111 33.5256 57.037 33.725 57.117 33.9409C57.2852 34.3949 57.2964 34.8636 57.1693 35.3321C57.1272 35.4876 57.073 35.6402 57.0241 35.7944Z" fill="#66CC99"/>
<path d="M45.0258 38.3462C44.3073 40.0715 43.1511 41.6228 41.6031 42.7705C37.8468 45.5552 32.3604 45.5582 28.6405 42.7035C28.5335 42.6208 28.4278 42.5364 28.3236 42.4502C22.8522 37.903 22.9053 28.5577 29.508 25.0787C33.7934 22.8207 39.814 23.6123 43.1934 27.1454C46.0981 30.1826 46.5602 34.6613 45.0258 38.3462Z" fill="#66CC99"/>
<path d="M35.8977 40.6421C35.8886 41.0072 35.8805 41.4173 35.8674 41.8272C35.8567 42.1636 35.8119 42.2184 35.4697 42.2095C35.0112 42.1977 34.5531 42.1665 34.0958 42.1322C33.8239 42.112 33.7554 42.0285 33.7585 41.7447C33.7627 41.3699 33.776 40.9951 33.7857 40.5996C33.6263 40.5566 33.4943 40.5175 33.3606 40.4855C32.3041 40.2324 31.5322 39.6069 30.9896 38.6793C30.7531 38.2751 30.6841 37.8173 30.5773 37.3733C30.5232 37.1487 30.6154 37.0219 30.8445 36.9508C30.9564 36.9155 31.0731 36.8979 31.1904 36.8985C31.6372 36.9047 32.0838 36.9241 32.5305 36.9341C32.7385 36.9388 32.8398 37.047 32.9052 37.2389C33.0034 37.5269 33.1151 37.8125 33.2479 38.0862C33.4914 38.5884 33.9404 38.8126 34.4632 38.8842C35.0461 38.9641 35.6369 38.8948 36.1498 38.6246C37.3771 37.9787 37.5284 36.78 36.5982 35.7933C36.1989 35.3698 35.6547 35.1443 35.1162 34.9298C34.1445 34.5427 33.1641 34.1672 32.2901 33.5805C31.9688 33.3639 31.6729 33.1117 31.4081 32.8287C30.8103 32.1893 30.6814 31.4185 30.9135 30.5937C31.284 29.2774 32.1546 28.4669 33.4788 28.1402C33.6492 28.0982 33.8226 28.0682 34.0315 28.025C34.0425 27.8456 34.057 27.6625 34.0641 27.4791C34.0731 27.2558 34.0739 27.0321 34.0818 26.8089C34.0906 26.5627 34.1536 26.467 34.382 26.4635C34.8748 26.4557 35.3682 26.4718 35.8612 26.4844C36.0563 26.4894 36.1617 26.6146 36.1885 26.7948C36.2177 26.9919 36.2352 27.1919 36.2403 27.3911C36.2459 27.613 36.2317 27.8354 36.2258 28.0701C36.3935 28.1232 36.5244 28.1664 36.6563 28.206C38.2205 28.6756 38.8302 29.8333 39.2258 31.3023C39.2852 31.523 39.1932 31.6664 38.9708 31.731C38.8492 31.7664 38.7161 31.779 38.589 31.7756C38.2834 31.7673 37.9784 31.7367 37.6727 31.7279C37.4203 31.7206 37.2688 31.6208 37.1734 31.3712C37.0826 31.1341 36.9339 30.9161 36.7919 30.7021C36.1281 29.7026 34.4529 29.8151 33.7328 30.5995C33.3762 30.988 33.3419 31.5725 33.6695 31.9906C33.8876 32.2713 34.181 32.4844 34.5154 32.605C34.8903 32.7412 35.2748 32.8503 35.6528 32.9782C36.1645 33.1514 36.6838 33.307 37.1821 33.5128C38.6196 34.1066 39.6214 35.6131 39.538 37.0873C39.5011 37.7375 39.3081 38.3365 38.9092 38.8547C38.5018 39.384 38.0054 39.8139 37.3813 40.0719C36.9169 40.2636 36.4429 40.4335 35.8977 40.6421Z" fill="white"/>
<path d="M66.9235 36.4425C66.311 29.7839 67.5796 27.2201 66.4183 20.7862C66.2788 20.2136 64.7428 19.7221 63.493 19.7469C62.6159 19.7643 61.7259 19.7976 60.8488 19.8717C43.7909 21.318 26.7389 22.8492 9.66702 24.1112C7.54641 24.319 3.08409 20.2919 2.65698 18.2498C1.10894 10.85 1.17679 25.0185 1.12744 27.5169C1.70439 32.4426 2.07289 37.3884 2.49399 42.3296C2.58312 43.3884 2.67224 44.4471 2.76201 45.5057C2.76623 45.9488 3.07565 46.297 3.52191 46.3676C4.29107 46.5356 5.45876 46.4072 6.35194 46.3458C8.01475 46.2246 9.67774 46.1069 11.3404 45.9833C18.9863 45.3967 26.6267 44.7395 34.27 44.1174L34.2695 44.1118C42.2859 43.4808 50.2904 42.7142 58.2985 41.9921C60.8016 41.764 63.3098 41.5457 65.8035 41.2347C66.6029 41.1761 67.3605 40.966 66.9235 36.4425Z" fill="#2B8958"/>
<path d="M66.5991 38.4093C66.5302 37.7683 66.4606 37.1274 66.3908 36.4865L66.3903 36.4818C66.128 34.0762 65.8614 31.6712 65.6184 29.2641C65.141 24.5331 64.6965 19.7992 64.2171 15.0684L64.1895 14.7964L64.1625 14.5312C64.0533 13.4596 63.8682 12.3939 63.6601 11.3327C63.5035 10.5346 63.1723 10.3539 61.9358 10.3473C61.3918 10.3444 60.8432 10.3499 60.2958 10.3728C59.9705 10.3864 59.6455 10.406 59.3221 10.4336L59.3195 10.4338C58.9827 10.4625 58.646 10.4918 58.3093 10.5213L58.1205 10.5379C57.7924 10.5666 57.4644 10.5957 57.1363 10.6247L56.9895 10.6379C54.1293 10.8927 51.2704 11.1612 48.4092 11.4051C43.747 11.8025 39.0823 12.1698 34.4195 12.5607C31.3104 12.8215 28.2026 13.0969 25.095 13.3732C24.0349 13.4676 22.9786 13.6038 21.9181 13.6874C19.6807 13.8638 17.4419 14.0221 15.2033 14.1804C13.3444 14.3117 11.4832 14.4122 9.62606 14.5633C9.34749 14.5861 9.06876 14.6091 8.79019 14.6325H8.7897C8.36811 14.6679 7.94669 14.7042 7.52526 14.7419L7.47494 14.7464C7.27591 14.7643 7.07688 14.7823 6.87802 14.8007L6.80854 14.8072C6.60789 14.8258 6.40724 14.8447 6.20659 14.8638L6.18176 14.8663C5.98517 14.8851 5.78858 14.9044 5.59199 14.924L5.53582 14.9296C5.34426 14.9487 5.1527 14.9684 4.96115 14.9882L4.85936 14.9987C4.67105 15.0184 4.48274 15.0383 4.29443 15.0588L4.20368 15.0687C4.00725 15.0901 3.81066 15.1119 3.6144 15.1343C3.24394 15.1763 2.87609 15.2508 2.51213 15.3398C2.14833 15.4287 1.78859 15.532 1.43437 15.6318C1.2071 15.696 1.01668 15.7773 0.865219 15.8757C0.85157 15.8845 0.838093 15.8936 0.824797 15.9029C0.750493 15.9547 0.682975 16.0157 0.623824 16.0843C0.586973 16.1279 0.555643 16.1739 0.529506 16.2221C0.510026 16.2583 0.493467 16.2956 0.480156 16.3344C0.448356 16.4282 0.433889 16.5269 0.437461 16.6258C0.440383 16.7276 0.441682 16.8296 0.441682 16.9315C0.441844 17.1356 0.437461 17.3399 0.432429 17.5443C0.429994 17.6466 0.427234 17.7487 0.424961 17.8508C0.422688 17.9529 0.42074 18.055 0.419604 18.1572C0.416357 18.4633 0.421065 18.7688 0.447039 19.0726C0.470228 19.3432 0.495066 19.6137 0.521552 19.8841L0.529993 19.9706C0.54087 20.0826 0.552071 20.1946 0.563435 20.3065L0.568629 20.357C0.726258 21.9071 0.915868 23.4547 1.0498 25.0068C1.4709 29.8858 1.87755 34.766 2.28534 39.646L2.28567 39.6493C2.4084 41.1184 2.53128 42.5874 2.65482 44.0566C2.66359 44.1611 2.67609 44.2585 2.69281 44.3491C2.69833 44.3793 2.7045 44.4087 2.71099 44.4374C2.7308 44.5234 2.75515 44.6028 2.78469 44.6759C2.81424 44.7489 2.84914 44.8157 2.88989 44.8765C2.91011 44.9067 2.932 44.9358 2.95547 44.9635C3.02759 45.0483 3.11409 45.1197 3.21099 45.1744C3.24459 45.1939 3.27998 45.2121 3.31732 45.229C3.35466 45.2458 3.39394 45.2616 3.43518 45.2762C3.49021 45.2955 3.54865 45.3129 3.61099 45.3283C3.62657 45.3322 3.64232 45.3358 3.65839 45.3395C3.9954 45.4148 4.43696 45.4368 5.01261 45.422C5.06942 45.4205 5.1264 45.4171 5.18338 45.4131C5.24037 45.409 5.29735 45.4043 5.35433 45.4002L5.36196 45.3997C5.57803 45.3845 5.79426 45.3694 6.01049 45.3545L6.23647 45.3389L6.66422 45.3093L6.94068 45.2903L7.22412 45.271C8.53711 45.1814 9.85009 45.0933 11.1627 44.9999H11.1631C12.1491 44.9298 13.135 44.8569 14.1204 44.7782C20.682 44.2538 27.2419 43.7043 33.8026 43.1652L33.8019 43.1574C36.1156 42.9673 38.4313 42.797 40.7423 42.5832C46.3363 42.0657 51.9293 41.5397 57.5215 41.0071L57.5288 41.0064C58.5616 40.908 59.5942 40.8095 60.627 40.7106C61.1661 40.6589 61.7047 40.6025 62.2428 40.5413C63.1623 40.4362 64.0805 40.3202 64.9973 40.1931L65.0148 40.1905L65.0785 40.1804L65.0836 40.1796L65.1507 40.1681L65.1658 40.1653L65.2249 40.1543L65.2315 40.153C65.2761 40.1445 65.3204 40.1351 65.3645 40.1248C65.4086 40.1145 65.4526 40.1036 65.4965 40.0921L65.5009 40.091C65.5213 40.0855 65.5416 40.0798 65.5616 40.0739L65.5624 40.0738C65.582 40.0681 65.6013 40.0623 65.6203 40.0563L65.6233 40.0553C65.6621 40.0431 65.6997 40.0303 65.7361 40.017L65.7375 40.0165C65.7742 40.003 65.8095 39.989 65.8436 39.9746L65.844 39.9744C66.3526 39.7577 66.5832 39.4173 66.6236 38.9119C66.6374 38.7438 66.6169 38.5761 66.5991 38.4093Z" fill="#66CC99"/>
<path d="M57.4285 36.0201C57.7337 35.2964 58.1806 34.6803 58.7793 34.1717C59.3727 33.6677 60.0464 33.3108 60.8043 33.1492C61.3158 33.0401 61.842 32.9845 62.3647 32.9467C62.4696 32.9392 62.5748 32.9364 62.68 32.9381C62.528 31.5725 62.378 30.2068 62.2379 28.8401C61.8727 25.2743 61.5318 21.7063 61.1696 18.1403C60.7605 18.1823 60.3495 18.1977 59.9363 18.1632C58.9743 18.0825 58.1228 17.7205 57.3439 17.1591C56.525 16.5687 55.8785 15.8341 55.4537 14.9187C55.2267 14.4297 55.0767 13.9383 55.0056 13.4445C52.3199 13.6812 49.6354 13.9319 46.949 14.1601C42.7781 14.5146 38.6051 14.8444 34.4336 15.1935C31.6522 15.4263 28.8718 15.6715 26.0916 15.9172C25.1433 16.0012 24.198 16.1197 23.2491 16.1947C21.2475 16.353 19.2449 16.4963 17.2423 16.6396C15.5793 16.7586 13.9147 16.852 12.2532 16.9874C11.2164 17.0711 10.1802 17.1619 9.14461 17.2598C9.14844 17.5428 9.12775 17.8256 9.08276 18.1051C9.03211 18.4226 8.95727 18.7362 8.89348 19.0516C8.58844 19.9289 8.21215 20.7614 7.56426 21.4429C6.92189 22.1187 6.1456 22.5576 5.22011 22.7044C4.89106 22.7565 4.5607 22.7994 4.22888 22.8208C4.33424 23.7718 4.4443 24.7222 4.52693 25.6752C4.87174 29.6549 5.20388 33.6355 5.53699 37.616C5.60615 37.6103 5.67514 37.605 5.74414 37.6C6.44722 37.5491 7.12222 37.716 7.77887 37.9564C8.02221 38.0456 8.26085 38.1472 8.50192 38.2423C8.92935 38.4111 9.32302 38.636 9.65191 38.9603C9.77594 39.0827 9.89445 39.2147 9.99315 39.3579C10.2552 39.7381 10.5469 40.1058 10.7509 40.5162C11.0314 41.0767 11.1877 41.6911 11.2094 42.3175C12.8417 42.2046 14.4738 42.0902 16.1048 41.9595C21.9749 41.4894 27.8436 40.9986 33.7127 40.5162L33.7122 40.5097C35.782 40.3396 37.8536 40.1858 39.9213 39.9962C45.6315 39.4725 51.3406 38.9394 57.0488 38.3995C56.9693 37.612 57.0918 36.8183 57.4285 36.0201Z" fill="#339966"/>
<path d="M16.6759 30.1737C16.5226 30.6144 16.3337 31.0326 16.0082 31.375C15.6855 31.7144 15.2955 31.935 14.8306 32.0087C14.5142 32.0589 14.1954 32.092 13.8739 32.0651C13.3907 32.0245 12.9629 31.8427 12.5717 31.5607C12.1603 31.2641 11.8355 30.8949 11.622 30.4352C11.3111 29.7652 11.2863 29.0857 11.5756 28.3995C11.7247 28.0404 11.9574 27.7221 12.2541 27.4709C12.5522 27.2177 12.8907 27.0385 13.2713 26.9573C13.5283 26.9024 13.7926 26.8745 14.0553 26.8557C14.4085 26.8302 14.7476 26.9139 15.0775 27.0347C15.1997 27.0795 15.3197 27.1305 15.4408 27.1784C15.6556 27.2631 15.8533 27.3761 16.0186 27.5391C16.0809 27.6006 16.1405 27.6669 16.19 27.7388C16.3216 27.9297 16.4681 28.1146 16.5707 28.3206C16.7863 28.754 16.8475 29.2188 16.7712 29.6982C16.7455 29.8578 16.7078 30.0152 16.6759 30.1737ZM55.3869 26.992C55.2337 27.4328 55.0447 27.8509 54.7192 28.1933C54.3965 28.5328 54.0066 28.7534 53.5416 28.8271C53.2252 28.8772 52.9064 28.9104 52.585 28.8834C52.1017 28.8428 51.674 28.661 51.2827 28.379C50.8714 28.0824 50.5465 27.7133 50.333 27.2535C50.022 26.5836 49.9973 25.904 50.2866 25.2178C50.4358 24.8588 50.6684 24.5405 50.9652 24.2893C51.2632 24.036 51.6017 23.8568 51.9824 23.7756C52.2394 23.7208 52.5037 23.6928 52.7663 23.674C53.1196 23.6485 53.4587 23.7323 53.7886 23.8531C53.9108 23.8979 54.0308 23.9489 54.1519 23.9967C54.3666 24.0815 54.5644 24.1945 54.7296 24.3575C54.792 24.419 54.8515 24.4852 54.9011 24.5571C55.0327 24.748 55.1791 24.9329 55.2817 25.1389C55.4973 25.5724 55.5585 26.0372 55.4822 26.5165C55.4566 26.676 55.4191 26.8336 55.3869 26.992Z" fill="#66CC99"/>
<path d="M43.7299 30.8109C43.1998 32.6031 42.2159 34.269 40.7994 35.5754C37.362 38.7456 31.9073 39.3344 27.9038 36.8935C27.7886 36.8227 27.6745 36.7501 27.5616 36.6756C21.6358 32.7388 20.6903 23.4412 26.8837 19.277C30.9033 16.5742 36.9741 16.7182 40.7114 19.87C43.924 22.5794 44.8618 26.9833 43.7299 30.8109Z" fill="#66CC99"/>
<path d="M34.8992 34.0686C34.9291 34.4326 34.9648 34.8412 34.9956 35.2501C35.021 35.5857 34.9822 35.6449 34.6409 35.6727C34.184 35.7099 33.725 35.7277 33.2666 35.7426C32.994 35.7514 32.9171 35.6758 32.8898 35.3935C32.8539 35.0202 32.8271 34.6462 32.7947 34.2521C32.6315 34.2263 32.4961 34.2016 32.3598 34.184C31.2822 34.0452 30.4481 33.5058 29.8095 32.6414C29.5312 32.2646 29.4137 31.8168 29.26 31.387C29.1822 31.1694 29.2604 31.0334 29.4806 30.9383C29.5881 30.8913 29.7022 30.8613 29.8189 30.8493C30.2637 30.8076 30.7098 30.7794 31.1551 30.7415C31.3624 30.724 31.4747 30.8209 31.5601 31.0045C31.6885 31.2803 31.8301 31.5524 31.9913 31.8102C32.2871 32.2836 32.7575 32.4584 33.2849 32.4738C33.8731 32.491 34.453 32.3589 34.9343 32.0357C36.0854 31.2623 36.108 30.0544 35.0778 29.1727C34.6356 28.7943 34.0703 28.6282 33.512 28.4724C32.5044 28.1912 31.4897 27.9225 30.558 27.4326C30.2153 27.2517 29.8943 27.0325 29.6009 26.7794C28.938 26.2075 28.7277 25.4549 28.8703 24.6099C29.0981 23.2617 29.8772 22.3628 31.1588 21.8964C31.3237 21.8364 31.4931 21.7882 31.6961 21.7227C31.6879 21.5433 31.6827 21.3596 31.6703 21.1765C31.6552 20.9536 31.6323 20.7312 31.6163 20.5083C31.5987 20.2625 31.6512 20.1607 31.8778 20.1328C32.3671 20.0724 32.8593 20.0357 33.3508 19.9956C33.5455 19.9797 33.6635 20.093 33.7094 20.2693C33.7598 20.4626 33.7983 20.6587 33.8247 20.8567C33.8539 21.0766 33.8637 21.2994 33.8828 21.5334C34.0552 21.5682 34.19 21.5972 34.3254 21.6226C35.9307 21.9226 36.6606 23.0083 37.2107 24.4266C37.2934 24.6398 37.2171 24.792 37.0029 24.88C36.8857 24.9282 36.7549 24.955 36.6281 24.9651C36.3234 24.9894 36.0169 24.9915 35.712 25.0156C35.4603 25.0354 35.2991 24.9523 35.1775 24.7143C35.0619 24.4881 34.8908 24.2873 34.7267 24.0898C33.9599 23.1669 32.3064 23.4576 31.6742 24.3146C31.3612 24.739 31.3895 25.3237 31.7598 25.7044C32.0066 25.9603 32.3211 26.1408 32.6666 26.2248C33.0538 26.3201 33.4478 26.3876 33.8372 26.4745C34.3643 26.592 34.8974 26.6912 35.415 26.8427C36.9077 27.2795 38.0646 28.6704 38.1391 30.1451C38.1719 30.7954 38.044 31.4117 37.7028 31.9694C37.3542 32.5392 36.9065 33.0198 36.3137 33.3428C35.8721 33.5832 35.4189 33.803 34.8992 34.0686Z" fill="white"/>
<path d="M67.0827 29.1006C65.3773 22.7864 64.351 16.2882 62.4329 10.0395C62.227 9.48771 61.891 9.4046 60.6801 9.57505C59.8303 9.69469 58.9702 9.83138 58.1274 10.0074C41.7373 13.4323 25.3634 16.9409 8.93711 20.1849C6.90287 20.6385 2.07431 17.163 1.40857 15.1867C-1.00392 8.02473 0.802403 22.0758 1.06117 24.5607C2.22642 29.3813 3.19184 34.2459 4.20791 39.0998C4.42447 40.1399 4.64119 41.1801 4.85839 42.2201C4.917 42.6592 5.26018 42.9686 5.70222 42.9866C6.46992 43.0637 7.58826 42.7999 8.44832 42.6348C10.0485 42.3205 11.6493 42.0098 13.2489 41.6933C20.6031 40.2191 27.9432 38.6758 35.2904 37.1668L35.2893 37.1613C42.9979 35.6 50.678 33.9056 58.3675 32.2548C60.7705 31.7365 63.1799 31.2272 65.5637 30.6276C66.3327 30.4761 67.4421 29.9948 67.0827 29.1006Z" fill="#2B8958"/>
<path d="M68.3221 27.3409C68.1762 26.7129 68.0296 26.085 67.8825 25.4573L67.8814 25.4527C67.3298 23.0967 66.7739 20.7416 66.2413 18.3815C65.1945 13.743 64.1803 9.09777 63.1317 4.4598L63.0715 4.19324L63.0127 3.93318C62.7746 2.88269 62.4619 1.84715 62.1267 0.819066C61.8746 0.0458542 61.5239 -0.0934307 60.2957 0.0497506C59.7554 0.112737 59.2116 0.184652 58.6709 0.273613C58.3499 0.326071 58.0301 0.385555 57.7118 0.452021L57.7094 0.452509C57.3785 0.521827 57.0478 0.591631 56.7171 0.661599L56.5318 0.700885C56.2095 0.769229 55.8873 0.837573 55.5652 0.906241L55.4212 0.936923C52.6129 1.53627 49.8074 2.14877 46.9969 2.7374C42.4172 3.69633 37.8312 4.62571 33.25 5.5783C30.1955 6.21336 27.1439 6.8632 24.0926 7.51368C23.0517 7.7356 22.0195 7.99875 20.977 8.21011C18.7775 8.65605 16.5743 9.08429 14.3714 9.51238C12.542 9.8679 10.7068 10.1929 8.88145 10.5679C8.60758 10.6242 8.33372 10.6807 8.06002 10.7377L8.05953 10.7379C7.64541 10.8241 7.23145 10.9112 6.81765 10.9995L6.7683 11.0101C6.57285 11.0518 6.37756 11.0939 6.18227 11.1362L6.11409 11.151C5.91714 11.1937 5.72028 11.2367 5.5235 11.2802L5.49915 11.2856C5.3063 11.3281 5.11344 11.3711 4.92075 11.4143L4.86571 11.4267C4.67789 11.4689 4.49007 11.5116 4.3024 11.5544L4.20257 11.5773C4.01799 11.6197 3.83341 11.6624 3.649 11.7054L3.56004 11.7262C3.3675 11.7713 3.17514 11.8166 2.98293 11.8625C2.62027 11.9492 2.2641 12.0677 1.91378 12.2C1.56345 12.3323 1.21881 12.4784 0.879202 12.6205C0.661346 12.7116 0.482126 12.8153 0.343653 12.9314C0.331209 12.9418 0.318977 12.9524 0.306964 12.9633C0.239394 13.0237 0.179723 13.0924 0.129368 13.1677C0.098199 13.2156 0.0725498 13.265 0.0525823 13.3159C0.0376786 13.3541 0.0258441 13.3933 0.0171925 13.4333C-0.00308073 13.5302 -0.00544646 13.6299 0.0102121 13.7276C0.0254718 13.8283 0.038946 13.9294 0.051446 14.0305C0.0762835 14.233 0.0967376 14.4364 0.11638 14.64C0.126283 14.7417 0.136024 14.8435 0.146089 14.9451C0.156153 15.0468 0.166705 15.1484 0.177906 15.2499C0.211835 15.5541 0.253393 15.8568 0.316055 16.1552C0.343652 16.2865 0.371737 16.4179 0.399984 16.549L0.421088 16.6456C0.443328 16.7477 0.465568 16.8497 0.488132 16.9518L0.507126 17.0367C0.531477 17.1466 0.556151 17.2563 0.580989 17.3661L0.59219 17.4156C0.936345 18.9352 1.31183 20.4485 1.63277 21.973C2.64153 26.7652 3.63585 31.5602 4.63162 36.3551L4.63227 36.3584C4.93195 37.8019 5.23178 39.2452 5.53227 40.6886C5.5537 40.7913 5.57772 40.8865 5.60548 40.9743C5.61474 41.0035 5.62431 41.0321 5.63422 41.0597C5.66425 41.1426 5.69802 41.2184 5.73617 41.2874C5.77431 41.3564 5.81701 41.4184 5.8649 41.4739C5.90444 41.5197 5.94819 41.5616 5.99558 41.5991C6.06198 41.6514 6.13633 41.6951 6.2196 41.7306C6.25532 41.7459 6.29266 41.7597 6.33178 41.7718C6.3709 41.7842 6.41181 41.795 6.45451 41.8045C6.53009 41.8212 6.60665 41.8331 6.68373 41.8402C7.02739 41.8743 7.46846 41.8424 8.03811 41.7582C8.09427 41.7499 8.15044 41.7395 8.20645 41.7287C8.26245 41.7178 8.31846 41.7061 8.37447 41.6952L8.38194 41.6938C8.5946 41.6525 8.80742 41.6113 9.02008 41.5704L9.24248 41.5275L9.66359 41.4465L9.93566 41.3942L10.2147 41.3407C11.5072 41.0928 12.7999 40.8462 14.0917 40.5947H14.092C15.0624 40.4063 16.032 40.2135 17.0007 40.0165C23.4507 38.7016 29.8958 37.3619 36.3429 36.0324L36.3412 36.0246C38.6148 35.5558 40.893 35.1063 43.1612 34.6144C49.6674 33.2028 56.1712 31.7807 62.6728 30.348C63.2017 30.2316 63.7295 30.1104 64.2561 29.9842C65.1331 29.7743 66.0076 29.554 66.8794 29.3235C66.929 29.3104 66.9783 29.2968 67.0275 29.2824L67.0325 29.281L67.0976 29.2615L67.1124 29.2569L67.1699 29.2388L67.1764 29.2367C67.1975 29.2298 67.2182 29.2229 67.2389 29.2159L67.2496 29.2121L67.3051 29.1927L67.3109 29.1905C67.3314 29.1832 67.3514 29.1758 67.3712 29.1681L67.3772 29.1659C67.3958 29.1587 67.4142 29.1514 67.4324 29.1441L67.4366 29.1425C67.4562 29.1345 67.4757 29.1264 67.4947 29.1183L67.4954 29.118C67.5142 29.1099 67.5327 29.1018 67.5507 29.0936L67.5535 29.0923C67.5906 29.0755 67.6264 29.0582 67.6608 29.0407L67.6621 29.0401C67.6968 29.0224 67.7303 29.0042 67.7622 28.9857L67.7627 28.9854C68.2415 28.7087 68.429 28.3428 68.408 27.8362C68.4007 27.6683 68.36 27.5042 68.3221 27.3409Z" fill="#66CC99"/>
<path d="M58.9297 26.0796C59.1449 25.3242 59.5141 24.6585 60.0467 24.0812C60.5746 23.509 61.2003 23.0732 61.9329 22.821C62.4274 22.6507 62.9431 22.5319 63.4572 22.431C63.5605 22.4109 63.6646 22.3953 63.7692 22.3843C63.4518 21.0476 63.1402 19.7095 62.8343 18.37C62.04 14.8747 61.2697 11.3743 60.4785 7.87834C60.0775 7.96957 59.6714 8.03467 59.2571 8.05026C58.2923 8.08662 57.4034 7.83045 56.5623 7.36746C55.6779 6.88062 54.9472 6.22948 54.4147 5.37234C54.1303 4.91455 53.9219 4.44475 53.7915 3.96326C51.1542 4.52332 48.5198 5.09702 45.8807 5.64913C41.7834 6.5061 37.6809 7.33857 33.5823 8.19019C30.8496 8.75804 28.1194 9.33791 25.3892 9.91859C24.4579 10.1166 23.5338 10.3488 22.6012 10.5381C20.6335 10.9376 18.6629 11.3223 16.6925 11.7071C15.0561 12.0265 13.415 12.3207 11.7821 12.6562C10.7631 12.8649 9.74546 13.0805 8.72935 13.303C8.76733 13.579 8.78081 13.8614 8.77025 14.1496C8.75857 14.4708 8.7222 14.7913 8.69704 15.1121C8.50045 16.0197 8.22772 16.8916 7.66717 17.6466C7.11133 18.3952 6.39397 18.9251 5.49299 19.1827C5.1727 19.2742 4.84982 19.3567 4.52319 19.4182C4.743 20.3494 4.96718 21.2798 5.16459 22.2156C5.98877 26.1242 6.80029 30.0354 7.61295 33.9464C7.68081 33.9325 7.74883 33.9188 7.81669 33.9055C8.50857 33.77 9.19866 33.8539 9.8795 34.0131C10.1318 34.0721 10.381 34.1442 10.6318 34.2094C11.0766 34.3252 11.4944 34.5008 11.8602 34.7829C11.9982 34.8893 12.1318 35.0062 12.247 35.1362C12.5532 35.4818 12.8871 35.8115 13.1396 36.1941C13.4858 36.7166 13.7154 37.3075 13.8128 37.9266C15.4194 37.6169 17.0257 37.3058 18.6288 36.9787C24.3989 35.8013 30.1648 34.6037 35.9325 33.4143L35.9312 33.408C37.9651 32.9885 40.0029 32.5851 42.0325 32.1466C47.6369 30.9351 53.2397 29.7155 58.8407 28.488C58.6667 27.7154 58.6923 26.9127 58.9297 26.0796Z" fill="#339966"/>
<path d="M17.7691 25.2099C17.6704 25.6659 17.5334 26.1039 17.2517 26.4831C16.9725 26.8592 16.6121 27.1253 16.1595 27.2547C15.8515 27.3428 15.539 27.4142 15.2166 27.4264C14.7319 27.4446 14.2855 27.316 13.8629 27.0834C13.4186 26.8388 13.0516 26.5118 12.784 26.0811C12.3943 25.4537 12.2873 24.7821 12.4915 24.066C12.596 23.6915 12.7884 23.3474 13.0527 23.0622C13.318 22.7747 13.6322 22.5558 14.0003 22.429C14.2486 22.3435 14.5077 22.2837 14.766 22.2333C15.1136 22.1651 15.4603 22.2073 15.8024 22.2873C15.9291 22.317 16.0543 22.3531 16.1803 22.3859C16.4037 22.444 16.6137 22.5323 16.7975 22.674C16.8668 22.7274 16.9338 22.7862 16.9918 22.8514C17.1455 23.0251 17.3134 23.1907 17.4402 23.3829C17.7067 23.7872 17.8238 24.241 17.8059 24.7261C17.8001 24.8878 17.7817 25.0488 17.7691 25.2099ZM55.8103 17.3649C55.7116 17.8209 55.5746 18.2589 55.293 18.6381C55.0137 19.0143 54.6534 19.2803 54.2008 19.4097C53.8928 19.4979 53.5803 19.5693 53.2579 19.5815C52.7732 19.5997 52.3267 19.4711 51.9042 19.2385C51.4599 18.9938 51.0928 18.6669 50.8253 18.2362C50.4355 17.6088 50.3285 16.9372 50.5327 16.2211C50.6373 15.8466 50.8297 15.5024 51.0939 15.2172C51.3592 14.9297 51.6735 14.7109 52.0415 14.5841C52.2899 14.4985 52.549 14.4388 52.8073 14.3883C53.1548 14.3201 53.5016 14.3623 53.8436 14.4424C53.9704 14.4721 54.0956 14.5081 54.2215 14.5409C54.4449 14.599 54.655 14.6873 54.8387 14.8291C54.9081 14.8825 54.9751 14.9412 55.0331 15.0065C55.1868 15.1802 55.3546 15.3458 55.4814 15.538C55.748 15.9422 55.865 16.3961 55.8472 16.8812C55.8412 17.0429 55.823 17.2039 55.8103 17.3649Z" fill="#66CC99"/>
<path d="M44.7013 22.5671C44.392 24.4102 43.6172 26.183 42.3692 27.6513C39.3409 31.2143 33.9976 32.4591 29.728 30.5208C29.605 30.4644 29.483 30.4061 29.3619 30.3459C23.003 27.1555 20.939 18.0408 26.5825 13.1574C30.2453 9.98789 36.2888 9.39568 40.3804 12.072C43.8974 14.3726 45.3615 18.6306 44.7013 22.5671Z" fill="#66CC99"/>
<path d="M36.3301 26.87C36.4038 27.2278 36.4888 27.6289 36.5689 28.0312C36.6346 28.3612 36.6033 28.4248 36.2681 28.4935C35.8189 28.5857 35.3656 28.6591 34.9124 28.7292C34.6429 28.7709 34.5574 28.7052 34.4962 28.4282C34.4153 28.0622 34.3434 27.6942 34.2635 27.3067C34.0986 27.3008 33.9611 27.2927 33.8236 27.2917C32.7372 27.2844 31.8437 26.85 31.1053 26.0692C30.7833 25.7289 30.6126 25.2987 30.4079 24.8904C30.3043 24.6839 30.3655 24.5395 30.5725 24.4184C30.6736 24.3587 30.7832 24.3151 30.8976 24.289C31.3342 24.1938 31.7736 24.1117 32.2109 24.0203C32.4147 23.9778 32.5377 24.0604 32.6449 24.2325C32.8057 24.4908 32.9793 24.7435 33.1703 24.98C33.5212 25.4141 34.0093 25.5308 34.5348 25.4823C35.1208 25.4283 35.6804 25.2268 36.1189 24.8476C37.1681 23.9406 37.044 22.7388 35.9147 21.9883C35.4299 21.6663 34.8488 21.5698 34.2755 21.4828C33.2413 21.3257 32.2015 21.1818 31.2173 20.8083C30.8552 20.6702 30.5099 20.4915 30.1881 20.2757C29.4609 19.7882 29.1609 19.0666 29.2002 18.2106C29.2631 16.8447 29.9275 15.8582 31.1434 15.24C31.2999 15.1604 31.4621 15.0919 31.6557 15.0025C31.6259 14.8254 31.5984 14.6437 31.564 14.4634C31.5221 14.2439 31.4723 14.0259 31.4294 13.8065C31.3822 13.5648 31.422 13.4574 31.6436 13.4022C32.1218 13.2828 32.6061 13.1871 33.0892 13.0876C33.2804 13.0483 33.4114 13.1463 33.4783 13.3158C33.5514 13.5012 33.6137 13.6919 33.6637 13.8848C33.7194 14.0996 33.7559 14.3194 33.8035 14.5496C33.9788 14.5632 34.116 14.5757 34.2536 14.5845C35.8835 14.6879 36.7395 15.6773 37.4573 17.0185C37.5653 17.2202 37.508 17.3806 37.306 17.4939C37.1957 17.5559 37.0689 17.5982 36.9442 17.6237C36.6447 17.6848 36.3406 17.7241 36.041 17.7846C35.7934 17.8346 35.6233 17.7718 35.4737 17.5504C35.3317 17.34 35.1375 17.1612 34.9507 16.9851C34.0778 16.1619 32.4716 16.6507 31.9479 17.5778C31.6885 18.0369 31.7876 18.614 32.2012 18.9469C32.4772 19.1711 32.8112 19.3123 33.1643 19.3539C33.5603 19.4017 33.9595 19.421 34.3565 19.4599C34.894 19.5127 35.4353 19.5466 35.9673 19.6343C37.5018 19.8872 38.8187 21.1278 39.0711 22.5825C39.1825 23.224 39.1301 23.8513 38.859 24.4463C38.5819 25.0541 38.1957 25.5854 37.6463 25.9778C37.2371 26.2705 36.8137 26.5433 36.3301 26.87Z" fill="white"/>
</svg>
