<svg width="227" height="75" viewBox="0 0 227 75" fill="none" xmlns="http://www.w3.org/2000/svg">
<path d="M39.1801 74.9616C18.4859 75.8897 0.959259 59.8624 0.0378117 39.168C-0.883655 18.4736 15.1492 0.952112 35.844 0.03727C56.5294 -0.877165 74.0413 15.1468 74.9624 35.8319C75.8834 56.517 59.8649 74.034 39.1801 74.9616ZM40.199 16.155C41.763 18.1331 45.3453 21.0927 47.2494 22.9295C46.5203 22.7302 45.5684 22.5565 44.8197 22.4087L34.1822 20.3225C33.0097 20.0882 31.9093 19.8248 30.7256 19.636C36.4211 22.1726 41.9484 24.8588 47.8422 27.0125C46.6512 27.1001 44.6628 27.0116 43.373 27.0125C43.7776 28.4182 44.7544 31.4018 45.4489 32.6845C44.5983 33.0824 42.3518 33.4448 41.3151 33.6605L35.5636 34.846C33.8171 35.1967 32.2128 35.4932 30.4767 35.9342C30.3187 35.0993 29.7069 33.5389 29.3982 32.6845H33.06V30.1157C30.1765 30.1159 27.1011 30.0593 24.2385 30.1157V32.6845H26.8637C26.9597 33.109 27.2495 33.8449 27.4073 34.276L28.327 36.7906C27.2566 38.2473 26.272 39.8166 25.1966 41.2265C18.1527 37.8654 11.049 44.8268 14.1394 51.9024C17.032 58.5259 27.0678 58.4847 29.5177 51.3287C29.9294 50.1262 29.7449 49.1072 30.9607 50.7009C32.1163 52.2157 34.182 52.2763 35.6763 51.2236C37.1449 50.0345 37.3225 48.0988 36.1618 46.63C39.2082 44.023 42.6458 40.6039 45.3709 37.5852C45.7665 37.1469 46.2263 36.758 46.6003 36.2936C47.1675 37.9134 48.162 39.981 48.8977 41.542C40.0336 47.0561 47.6831 60.2496 56.6827 56.1262C63.3484 53.0723 63.2434 43.3898 56.2704 40.8163C54.988 40.3428 52.3491 39.9754 51.1038 40.5824C50.1029 37.7665 48.73 35.0745 47.6825 32.2721C47.3422 31.3619 46.7848 30.2683 46.6003 29.3396C48.9204 29.3191 51.2401 29.8945 53.5736 29.9152C52.7997 30.2971 51.2672 31.1545 50.5526 31.6123C52.4397 33.6607 55.2717 33.9576 57.6265 32.5808C61.7373 30.1773 61.8428 24.0403 57.8262 21.4905C56.3264 20.5385 50.4893 18.8993 48.5722 18.4201C49.3962 18.9752 51.0422 20.1395 51.6879 20.7593C47.924 19.0527 43.9902 17.9825 40.199 16.155Z" fill="black"/>
<path d="M31.1548 38.2058C35.2015 37.5407 39.058 36.6663 43.0535 35.9344L43.1116 35.9189L43.1341 35.9614C40.1727 38.9386 37.3346 42.2061 34.3806 45.2281C34.0585 45.1408 33.7368 45.073 33.4109 45.0015C33.2284 44.5148 33.0559 44.0291 32.8822 43.5395C32.5028 42.6543 31.2209 38.9789 31.1548 38.2058Z" fill="black"/>
<path d="M26.9484 42.7627C27.5747 41.6445 28.5047 40.5117 29.0788 39.4861C29.1597 39.5821 30.991 45.0885 31.1549 45.6505C30.374 46.3703 30.3242 46.6576 29.727 47.4512L29.6433 47.4198L29.5509 47.2122C29.1613 45.5355 28.3564 43.8194 26.9484 42.7627Z" fill="black"/>
<path d="M24.3704 53.2211C18.8943 56.6401 12.7448 49.4041 17.2884 44.7075C18.2687 43.6939 19.3972 43.0968 20.8426 43.0588C21.7675 42.9252 22.62 43.1183 23.4441 43.5391C23.1948 43.848 20.2991 47.7587 20.1523 48.0729C19.2074 50.0965 22.1761 49.725 23.0107 49.725L26.9485 49.7225C26.2362 51.348 25.8833 52.1711 24.3704 53.2211Z" fill="black"/>
<path d="M51.9463 43.1634L52.7186 43.059C54.4663 42.9437 56.2978 43.6134 57.385 44.9968C61.8014 50.6168 53.4904 58.1045 48.2527 51.5013C46.58 48.7278 47.1292 46.2659 49.5357 44.1853L50.941 47.3299C51.2024 47.9167 51.4997 48.6933 51.8483 49.2058C52.5666 50.2607 54.3276 49.4153 54.0667 48.2072C53.9486 47.6601 53.5981 46.9538 53.3781 46.4406L51.9463 43.1634Z" fill="black"/>
<path d="M23.9191 47.2121C24.2859 46.4777 24.9314 45.6138 25.4865 45.0012C26.2209 45.6252 26.4178 46.328 26.7213 47.2121C26.1899 47.2235 25.6182 47.2129 25.0835 47.2121H23.9191Z" fill="black"/>
<path d="M86.32 29.6H95.12C96.5573 29.6 97.6133 29.93 98.288 30.59C98.9627 31.2353 99.3 32.2253 99.3 33.56C99.3 34.44 99.1093 35.1587 98.728 35.716C98.3467 36.2587 97.8773 36.64 97.32 36.86C98.508 37.1827 99.3147 37.9747 99.74 39.236C99.8867 39.6907 99.96 40.2187 99.96 40.82C99.96 42.2573 99.6227 43.3133 98.948 43.988C98.2733 44.6627 97.2173 45 95.78 45H86.32V29.6ZM96 40.16C96 39.28 95.56 38.84 94.68 38.84H90.28V41.92H94.68C95.56 41.92 96 41.48 96 40.6V40.16ZM95.34 34C95.34 33.12 94.9 32.68 94.02 32.68H90.28V35.76H94.02C94.9 35.76 95.34 35.32 95.34 34.44V34ZM106.229 35.87C105.642 35.87 105.349 36.1633 105.349 36.75V37.96H109.089V36.75C109.089 36.1633 108.796 35.87 108.209 35.87H106.229ZM112.499 44.78C109.668 45.0733 107.102 45.22 104.799 45.22C103.802 45.22 103.002 44.9193 102.401 44.318C101.8 43.7167 101.499 42.9173 101.499 41.92V36.64C101.499 35.54 101.807 34.682 102.423 34.066C103.054 33.4353 103.919 33.12 105.019 33.12H109.419C110.519 33.12 111.377 33.4353 111.993 34.066C112.624 34.682 112.939 35.54 112.939 36.64V40.71H105.349V41.59C105.349 41.81 105.422 41.9933 105.569 42.14C105.716 42.2867 105.899 42.36 106.119 42.36C107.571 42.36 109.698 42.25 112.499 42.03V44.78ZM116.231 45.22C115.6 45.22 114.867 45.1467 114.031 45V42.14H114.911C115.468 42.14 115.761 41.8467 115.791 41.26L116.231 33.34H126.791V45H122.941V36.31H119.861L119.531 41.92C119.472 42.9173 119.142 43.7167 118.541 44.318C117.939 44.9193 117.169 45.22 116.231 45.22ZM140.863 41.7C140.863 42.8 140.547 43.6653 139.917 44.296C139.301 44.912 138.443 45.22 137.343 45.22H132.283C131.183 45.22 130.317 44.912 129.687 44.296C129.071 43.6653 128.763 42.8 128.763 41.7V36.64C128.763 35.54 129.071 34.682 129.687 34.066C130.317 33.4353 131.183 33.12 132.283 33.12H137.343C138.443 33.12 139.301 33.4353 139.917 34.066C140.547 34.682 140.863 35.54 140.863 36.64V41.7ZM137.013 36.97C137.013 36.3833 136.719 36.09 136.133 36.09H133.493C132.906 36.09 132.613 36.3833 132.613 36.97V41.37C132.613 41.9567 132.906 42.25 133.493 42.25H136.133C136.719 42.25 137.013 41.9567 137.013 41.37V36.97ZM156.26 36.42L153.18 41.92H150.1L147.02 36.42V45H143.06V29.6H147.24L151.64 37.74L156.04 29.6H160.22V45H156.26V36.42ZM167.269 42.14C168.046 42.14 168.926 41.9933 169.909 41.7V40.38H166.719C166.499 40.38 166.315 40.4533 166.169 40.6C166.022 40.7467 165.949 40.93 165.949 41.15V41.37C165.949 41.59 166.022 41.7733 166.169 41.92C166.315 42.0667 166.499 42.14 166.719 42.14H167.269ZM163.199 33.56C165.883 33.2667 168.303 33.12 170.459 33.12C171.456 33.12 172.255 33.4207 172.857 34.022C173.458 34.6233 173.759 35.4227 173.759 36.42V45H170.349L170.129 43.9C169.439 44.3547 168.728 44.692 167.995 44.912C167.276 45.1173 166.667 45.22 166.169 45.22H165.399C164.401 45.22 163.602 44.9193 163.001 44.318C162.399 43.7167 162.099 42.9173 162.099 41.92V40.93C162.099 39.9327 162.399 39.1333 163.001 38.532C163.602 37.9307 164.401 37.63 165.399 37.63H169.909V36.75C169.909 36.53 169.835 36.3467 169.689 36.2C169.542 36.0533 169.359 35.98 169.139 35.98C168.185 35.98 167.129 36.024 165.971 36.112C164.827 36.2 163.903 36.266 163.199 36.31V33.56ZM182.223 36.31C181.445 36.31 180.565 36.4567 179.583 36.75V42.03H182.883C183.469 42.03 183.763 41.7367 183.763 41.15V37.08C183.763 36.86 183.689 36.6767 183.543 36.53C183.396 36.3833 183.213 36.31 182.993 36.31H182.223ZM179.583 45V48.74H175.733V33.34H179.143L179.363 34.44C180.052 33.9853 180.756 33.6553 181.475 33.45C182.208 33.23 182.824 33.12 183.323 33.12H184.313C185.31 33.12 186.109 33.4207 186.711 34.022C187.312 34.6233 187.613 35.4227 187.613 36.42V41.48C187.613 42.58 187.297 43.4453 186.667 44.076C186.051 44.692 185.193 45 184.093 45H179.583ZM195.09 40.6H193.44V45H189.59V33.34H193.44V37.63H195.2L196.41 35.21C196.85 34.2713 197.54 33.6333 198.478 33.296C198.816 33.1787 199.138 33.12 199.446 33.12C199.945 33.12 200.4 33.1567 200.81 33.23L201.36 33.34V36.31H200.59C200.092 36.31 199.725 36.53 199.49 36.97L198.39 39.17L201.69 45H197.51L195.09 40.6ZM207.292 35.87C206.705 35.87 206.412 36.1633 206.412 36.75V37.96H210.152V36.75C210.152 36.1633 209.858 35.87 209.272 35.87H207.292ZM213.562 44.78C210.731 45.0733 208.164 45.22 205.862 45.22C204.864 45.22 204.065 44.9193 203.464 44.318C202.862 43.7167 202.562 42.9173 202.562 41.92V36.64C202.562 35.54 202.87 34.682 203.486 34.066C204.116 33.4353 204.982 33.12 206.082 33.12H210.482C211.582 33.12 212.44 33.4353 213.056 34.066C213.686 34.682 214.002 35.54 214.002 36.64V40.71H206.412V41.59C206.412 41.81 206.485 41.9933 206.632 42.14C206.778 42.2867 206.962 42.36 207.182 42.36C208.634 42.36 210.76 42.25 213.562 42.03V44.78ZM222.573 36.31V45H218.723V36.31H215.093V33.34H226.203V36.31H222.573Z" fill="black"/>
</svg>
