<svg width="50" height="50" viewBox="0 0 50 50" fill="none" xmlns="http://www.w3.org/2000/svg">
<path d="M25 50C38.8071 50 50 38.8071 50 25C50 11.1929 38.8071 0 25 0C11.1929 0 0 11.1929 0 25C0 38.8071 11.1929 50 25 50Z" fill="#FF9800"/>
<path d="M25 11.8422C23.6871 11.8422 22.4037 12.2315 21.3121 12.9609C20.2204 13.6903 19.3696 14.727 18.8672 15.94C18.3648 17.153 18.2333 18.4877 18.4894 19.7754C18.7456 21.063 19.3778 22.2458 20.3062 23.1742C21.2345 24.1026 22.4173 24.7348 23.705 24.9909C24.9927 25.2471 26.3274 25.1156 27.5404 24.6132C28.7533 24.1108 29.7901 23.2599 30.5195 22.1683C31.2489 21.0766 31.6382 19.7932 31.6382 18.4803C31.6386 17.6085 31.4672 16.7451 31.1338 15.9395C30.8003 15.1339 30.3114 14.402 29.6949 13.7855C29.0784 13.169 28.3464 12.68 27.5409 12.3466C26.7353 12.0131 25.8719 11.8417 25 11.8422ZM25 21.7895C24.3455 21.7895 23.7057 21.5955 23.1615 21.2318C22.6173 20.8682 22.1932 20.3514 21.9427 19.7467C21.6923 19.142 21.6267 18.4767 21.7544 17.8347C21.8821 17.1928 22.1973 16.6032 22.6601 16.1404C23.1229 15.6776 23.7125 15.3624 24.3544 15.2347C24.9964 15.107 25.6617 15.1725 26.2664 15.423C26.8711 15.6735 27.3879 16.0976 27.7515 16.6418C28.1152 17.186 28.3092 17.8258 28.3092 18.4803C28.3097 18.915 28.2244 19.3455 28.0582 19.7472C27.8921 20.1489 27.6483 20.5139 27.341 20.8213C27.0336 21.1286 26.6686 21.3724 26.2669 21.5385C25.8652 21.7047 25.4347 21.79 25 21.7895Z" fill="white"/>
<path d="M34.7829 26.1348C34.6384 25.8768 34.4444 25.6497 34.212 25.4667C33.9797 25.2837 33.7135 25.1483 33.4287 25.0682C33.144 24.9882 32.8462 24.965 32.5525 25.0002C32.2589 25.0353 31.975 25.128 31.7171 25.273C27.1974 27.8059 22.8027 27.8059 18.2829 25.273C18.0237 25.1283 17.7386 25.036 17.4437 25.0015C17.1489 24.967 16.8502 24.9909 16.5646 25.0719C16.279 25.1528 16.0121 25.2892 15.7792 25.4733C15.5463 25.6574 15.352 25.8855 15.2073 26.1447C15.0626 26.4039 14.9703 26.689 14.9358 26.9839C14.9013 27.2787 14.9252 27.5775 15.0061 27.8631C15.1696 28.4399 15.5555 28.9281 16.079 29.2204C17.5617 30.0619 19.1458 30.7107 20.7928 31.1513L17.5954 34.3486C17.1754 34.7687 16.9394 35.3385 16.9394 35.9325C16.9394 36.5266 17.1754 37.0963 17.5954 37.5164C18.0155 37.9364 18.5853 38.1724 19.1793 38.1724C19.7734 38.1724 20.3431 37.9364 20.7632 37.5164L25 33.2631L29.2369 37.5C29.657 37.92 30.2267 38.1559 30.8208 38.1559C31.4148 38.1559 31.9845 37.92 32.4046 37.5C32.8247 37.0799 33.0606 36.5101 33.0606 35.9161C33.0606 35.322 32.8247 34.7523 32.4046 34.3322L29.2073 31.1348C30.8543 30.6943 32.4383 30.0454 33.9211 29.2039C34.1796 29.0594 34.407 28.8652 34.5903 28.6326C34.7736 28.4 34.9092 28.1335 34.9893 27.8483C35.0693 27.5632 35.0923 27.265 35.0569 26.971C35.0215 26.677 34.9284 26.3928 34.7829 26.1348Z" fill="white"/>
</svg>
