<svg width="20" height="20" viewBox="0 0 20 20" fill="none" xmlns="http://www.w3.org/2000/svg">
<path d="M19.756 18.5776L14.7818 13.6034C16.0019 12.1183 16.6682 10.2554 16.6668 8.33339C16.6668 3.73836 12.9284 0 8.33339 0C3.73836 0 0 3.73836 0 8.33339C0 12.9284 3.73836 16.6668 8.33339 16.6668C10.3317 16.6668 12.1667 15.9584 13.6034 14.7818L18.5776 19.756C18.655 19.8333 18.7468 19.8947 18.8479 19.9366C18.949 19.9784 19.0574 20 19.1668 20C19.2762 20 19.3846 19.9784 19.4856 19.9366C19.5867 19.8947 19.6786 19.8333 19.756 19.756C19.8333 19.6786 19.8947 19.5867 19.9366 19.4856C19.9784 19.3846 20 19.2762 20 19.1668C20 19.0574 19.9784 18.949 19.9366 18.8479C19.8947 18.7468 19.8333 18.655 19.756 18.5776ZM1.66668 8.33339C1.66668 4.65753 4.65753 1.66668 8.33339 1.66668C12.0092 1.66668 15.0001 4.65753 15.0001 8.33339C15.0001 12.0092 12.0092 15.0001 8.33339 15.0001C4.65753 15.0001 1.66668 12.0092 1.66668 8.33339Z" fill="#1A1A1D"/>
</svg>
