<svg width="27" height="30" viewBox="0 0 27 30" fill="none" xmlns="http://www.w3.org/2000/svg">
<path fill-rule="evenodd" clip-rule="evenodd" d="M0.835022 22.712C2.16867 24.7331 3.98302 26.3916 6.11541 27.5389C8.2478 28.6862 10.6316 29.2864 13.053 29.2857C15.4753 29.2894 17.8601 28.6881 19.991 27.5363C22.1219 26.3846 23.9314 24.719 25.2554 22.6906C25.6516 22.1035 25.9137 21.4363 26.0229 20.7365C26.1321 20.0366 26.0858 19.3213 25.8873 18.6414C25.6888 17.9615 25.343 17.3337 24.8744 16.8025C24.4058 16.2714 23.826 15.85 23.1761 15.5683L23.1527 15.5566C20.1792 14.3559 16.7293 13.6667 13.053 13.6667C9.37864 13.6667 5.93268 14.3559 2.9514 15.5292L2.91821 15.5429C2.26434 15.8268 1.6811 16.2514 1.21 16.7864C0.738904 17.3213 0.391537 17.9536 0.192627 18.6381C-0.00628161 19.3227 -0.0518412 20.0426 0.059192 20.7468C0.170225 21.4509 0.435121 22.1219 0.835022 22.712ZM13.053 3.0069e-07C11.3725 0.00103476 9.76119 0.669058 8.57292 1.85733C7.38465 3.04561 6.71662 4.65695 6.71559 6.33743C6.7152 7.5914 7.08672 8.81733 7.78315 9.86013C8.47958 10.9029 9.46964 11.7158 10.6281 12.1958C11.7865 12.6759 13.0613 12.8016 14.2912 12.557C15.5211 12.3125 16.6509 11.7087 17.5376 10.822C18.4243 9.9353 19.0281 8.80555 19.2726 7.57565C19.5172 6.34575 19.3915 5.07095 18.9114 3.9125C18.4314 2.75405 17.6185 1.764 16.5757 1.06756C15.5329 0.371133 14.307 -0.000385835 13.053 3.0069e-07Z" fill="#1A1A1D"/>
</svg>
