<svg width="50" height="50" viewBox="0 0 50 50" fill="none" xmlns="http://www.w3.org/2000/svg">
<path d="M25 50C38.8071 50 50 38.8071 50 25C50 11.1929 38.8071 0 25 0C11.1929 0 0 11.1929 0 25C0 38.8071 11.1929 50 25 50Z" fill="#4169E1"/>
<path d="M39.4091 34.7841C38.6818 34.8864 35.125 34.7841 34.9403 34.7841C34.0209 34.7959 33.1339 34.4447 32.4716 33.8068C31.7216 33.0852 31.0511 32.2898 30.3182 31.5341C30.1014 31.3047 29.8668 31.0929 29.6165 30.9006C29.0313 30.4489 28.4517 30.5511 28.1761 31.2415C27.9608 31.9875 27.8107 32.7508 27.7273 33.5227C27.679 34.2216 27.2358 34.6591 26.4517 34.7074C25.9659 34.733 25.4801 34.7415 25 34.7301C23.2503 34.7189 21.5281 34.2935 19.9744 33.4886C18.2934 32.5519 16.8288 31.2712 15.6761 29.7301C13.7813 27.3097 12.267 24.6506 10.9148 21.9091C10.8438 21.7727 9.45739 18.8239 9.4233 18.6847C9.2983 18.2188 9.4233 17.7727 9.80682 17.6193C10.0511 17.5256 14.6193 17.6193 14.696 17.6193C15.0356 17.6164 15.3674 17.7216 15.6432 17.9198C15.919 18.118 16.1246 18.3988 16.2301 18.7216C17.0746 20.8839 18.2308 22.911 19.6619 24.7386C19.8622 24.983 20.0966 25.1974 20.358 25.375C20.7301 25.6278 21.0824 25.5398 21.2358 25.1108C21.4176 24.5156 21.5245 23.9001 21.554 23.2784C21.5796 22.0455 21.554 21.233 21.4858 20.0029C21.4403 19.2131 21.1619 18.5199 19.9972 18.2983C19.6392 18.2358 19.608 17.9403 19.8381 17.6449C20.3182 17.0313 20.9744 16.9347 21.7102 16.8977C22.8068 16.8352 23.9034 16.8778 25 16.8977H25.2386C25.7159 16.896 26.192 16.9446 26.6591 17.0426C26.9352 17.0985 27.1859 17.242 27.3738 17.4519C27.5617 17.6618 27.6767 17.9268 27.7017 18.2074C27.7578 18.5185 27.7816 18.8346 27.7727 19.1506C27.7443 20.4972 27.679 21.8409 27.6648 23.1875C27.6517 23.7207 27.7003 24.2536 27.8097 24.7756C27.9659 25.4915 28.4574 25.6705 28.946 25.1534C29.5787 24.485 30.1591 23.7689 30.6818 23.0114C31.6062 21.6308 32.3688 20.1485 32.9545 18.5938C33.2727 17.7955 33.5227 17.6193 34.375 17.6193H39.2216C39.5098 17.6143 39.7971 17.6526 40.0739 17.733C40.1718 17.7587 40.2634 17.8044 40.3429 17.8672C40.4224 17.93 40.4881 18.0085 40.5358 18.0978C40.5836 18.1872 40.6123 18.2854 40.6204 18.3864C40.6284 18.4874 40.6154 18.5889 40.5824 18.6847C40.3438 19.7472 39.7699 20.6534 39.1619 21.5256C38.1761 22.9233 37.1364 24.2841 36.1278 25.6591C36.0003 25.8415 35.8836 26.0312 35.7784 26.2273C35.3977 26.9119 35.4261 27.2955 35.9773 27.8665C36.858 28.7699 37.7983 29.6193 38.6477 30.5511C39.2714 31.2286 39.8342 31.9596 40.3296 32.7358C40.9517 33.6989 40.5682 34.6193 39.4091 34.7841Z" fill="white"/>
</svg>
